<?xml version="1.0" encoding="UTF-8"?>
<!DOCTYPE svg PUBLIC "-//W3C//DTD SVG 1.1//EN" "http://www.w3.org/Graphics/SVG/1.1/DTD/svg11.dtd">
<!-- Creator: CorelDRAW (Evaluation Version) -->
<svg xmlns="http://www.w3.org/2000/svg" xml:space="preserve" width="54.0487mm" height="33.6618mm" version="1.1" style="shape-rendering:geometricPrecision; text-rendering:geometricPrecision; image-rendering:optimizeQuality; fill-rule:evenodd; clip-rule:evenodd"
viewBox="0 0 8770.71 5462.44"
 xmlns:xlink="http://www.w3.org/1999/xlink"
 xmlns:xodm="http://www.corel.com/coreldraw/odm/2003">
 <defs>
  <style type="text/css">
   <![CDATA[
    .str3 {stroke:white;stroke-width:12.37;stroke-miterlimit:22.9256}
    .str6 {stroke:white;stroke-width:20.43;stroke-linecap:round;stroke-linejoin:round;stroke-miterlimit:22.9256}
    .str0 {stroke:white;stroke-width:20.43;stroke-linecap:round;stroke-linejoin:round;stroke-miterlimit:22.9256}
    .str7 {stroke:white;stroke-width:20.43;stroke-linecap:round;stroke-linejoin:round;stroke-miterlimit:22.9256}
    .str2 {stroke:white;stroke-width:20.43;stroke-linecap:round;stroke-linejoin:round;stroke-miterlimit:22.9256}
    .str5 {stroke:white;stroke-width:20.45;stroke-linecap:round;stroke-linejoin:round;stroke-miterlimit:22.9256}
    .str1 {stroke:white;stroke-width:20.45;stroke-linecap:round;stroke-linejoin:round;stroke-miterlimit:22.9256}
    .str4 {stroke:white;stroke-width:20.45;stroke-linecap:round;stroke-linejoin:round;stroke-miterlimit:22.9256}
    .fil1 {fill:none}
    .fil3 {fill:none;fill-rule:nonzero}
    .fil2 {fill:white}
    .fil0 {fill:#00E2C7}
   ]]>
  </style>
 </defs>
 <g id="Layer_x0020_1">
  <metadata id="CorelCorpID_0Corel-Layer"/>
  <g id="_234637264">
   <path class="fil0" d="M6169.52 81.38c-3286.7,-593.47 -4504.91,2223.87 -2799.6,3111.14 -1294.4,-1195.46 249.87,-2903.1 2421.68,-2469.08l377.92 -642.05z"/>
   <path class="fil0" d="M5555.59 1193.28c-2015.88,-415.16 -3168.47,1278.23 -1921,2003.88 -689.86,-788.36 206.02,-1684.96 1641.21,-1399.15l279.79 -604.73z"/>
   <path class="fil0" d="M5082.71 2179.94c-1125.7,-203.61 -1812.69,375.83 -1242.39,998.08 -280.28,-703.46 431.75,-797.95 1127.34,-692.18l115.05 -305.9z"/>
  </g>
  <g>
   <path class="fil1 str0" d="M33.7 3845.61l285.78 0c18.78,0 23.74,7.38 23.74,23.14 0,0.15 0,0.54 0,0.67 2.92,334.97 -108.07,1172.68 286.67,1319.6 0.08,0 0.37,0.13 0.41,0.13 7.16,2.71 22.15,8.49 21.89,22.49l0 211.64c0.96,14.73 -0.03,26.26 -18.55,24.83 -0.36,-0.03 -0.8,-0.1 -1.15,-0.13 -331.38,-39.14 -575.31,-198.43 -612.83,-641.28l-9.44 -938.87c-0.32,-15.59 9.48,-21.92 23.48,-22.22z"/>
   <path id="_1" class="fil2" d="M33.7 3845.61l285.78 0c18.78,0 23.74,7.38 23.74,23.14 0,0.15 0,0.54 0,0.67 2.92,334.97 -108.07,1172.68 286.67,1319.6 0.08,0 0.37,0.13 0.41,0.13 7.16,2.71 22.15,8.49 21.89,22.49l0 211.64c0.96,14.73 -0.03,26.26 -18.55,24.83 -0.36,-0.03 -0.8,-0.1 -1.15,-0.13 -331.38,-39.14 -575.31,-198.43 -612.83,-641.28l-9.44 -938.87c-0.32,-15.59 9.48,-21.92 23.48,-22.22z"/>
  </g>
  <g>
   <path class="fil1 str1" d="M1798.21 3957.03c-75.34,-95.03 -20.41,-110.27 8.57,-112.34l300.52 0c13.81,0.75 17.17,-2.81 24.81,10.42l300.11 412.26c30.57,37.73 15.43,98.06 -32.1,101.66l-263.61 0c-6.18,-0.03 -10.42,1.64 -14.2,-5.7l-324.09 -406.3z"/>
   <path id="_1_8" class="fil2" d="M1798.21 3957.03c-75.34,-95.03 -20.41,-110.27 8.57,-112.34l300.52 0c13.81,0.75 17.17,-2.81 24.81,10.42l300.11 412.26c30.57,37.73 15.43,98.06 -32.1,101.66l-263.61 0c-6.18,-0.03 -10.42,1.64 -14.2,-5.7l-324.09 -406.3z"/>
  </g>
  <g>
   <path class="fil1 str2" d="M1765.82 5341.84l0 90.14c-0.39,12.8 8.44,19.75 21.63,19.72l271.76 -0.03c17.56,0 16.7,-2.58 25.53,-11.81l452.97 -573.3 394.7 579.22c3.67,6.62 7.48,5.73 12.74,5.89l262.98 0c7.04,0.67 9.07,-2.32 10.42,-6.59l46.26 -97.77c1.09,-3.52 0.96,-7.16 -1.44,-10.95l-531.85 -717.16c-2.87,-4.93 -2.55,-9.62 0.7,-14.25l529.96 -663.78c2.99,-4.8 2.77,-9.49 -0.19,-14.17l-67.26 -84.16c-2.61,-3.73 -6.65,-4.46 -10.29,-4.37l-253.26 0c-5.66,0 -8.31,0.06 -11.21,4.84l-1154.13 1498.52z"/>
   <path id="_1_9" class="fil2" d="M1765.82 5341.84l0 90.14c-0.39,12.8 8.44,19.75 21.63,19.72l271.76 -0.03c17.56,0 16.7,-2.58 25.53,-11.81l452.97 -573.3 394.7 579.22c3.67,6.62 7.48,5.73 12.74,5.89l262.98 0c7.04,0.67 9.07,-2.32 10.42,-6.59l46.26 -97.77c1.09,-3.52 0.96,-7.16 -1.44,-10.95l-531.85 -717.16c-2.87,-4.93 -2.55,-9.62 0.7,-14.25l529.96 -663.78c2.99,-4.8 2.77,-9.49 -0.19,-14.17l-67.26 -84.16c-2.61,-3.73 -6.65,-4.46 -10.29,-4.37l-253.26 0c-5.66,0 -8.31,0.06 -11.21,4.84l-1154.13 1498.52z"/>
  </g>
  <g>
   <path class="fil3 str3" d="M4265.69 4101.86l0 -0.18 -1.3 -241.14 0 -0.37c-0.11,-7.5 -3.23,-13.65 -17.07,-13.14 -0.13,0 -0.31,0.03 -0.41,0.03 -926.99,58.81 -911.95,1517.12 1.57,1600.09 0,0 0.15,0 0.15,0 14.35,1.85 16.02,-1.38 15.85,-12.54l0 -0.54 0 -269.7 0 -0.16c0.41,-6.47 -0.37,-11.34 -9.46,-11.57 -0.03,0 -0.06,-0.03 -0.1,-0.03 -575.7,-126.02 -472.23,-1004.45 0.1,-1038.57 0,0 0.13,0 0.13,0 10.4,0.19 12.01,-2.92 10.53,-12.17z"/>
   <path id="_1_10" class="fil2" d="M4265.69 4101.86l0 -0.18 -1.3 -241.14 0 -0.37c-0.11,-7.5 -3.23,-13.65 -17.07,-13.14 -0.13,0 -0.31,0.03 -0.41,0.03 -926.99,58.81 -911.95,1517.12 1.57,1600.09 0,0 0.15,0 0.15,0 14.35,1.85 16.02,-1.38 15.85,-12.54l0 -0.54 0 -269.7 0 -0.16c0.41,-6.47 -0.37,-11.34 -9.46,-11.57 -0.03,0 -0.06,-0.03 -0.1,-0.03 -575.7,-126.02 -472.23,-1004.45 0.1,-1038.57 0,0 0.13,0 0.13,0 10.4,0.19 12.01,-2.92 10.53,-12.17z"/>
  </g>
  <g>
   <path class="fil1 str4" d="M7198.33 3955.73c-87.35,-110.07 -50.6,-109.26 -3.02,-112.34l311.99 0c10.42,-0.32 18.71,2.01 25.95,13.65l299.09 409.03c25.59,59.55 15.43,93.86 -32.1,101.65l-256.09 0c-15.04,0 -21.1,-3.62 -27.59,-13.52l-318.24 -398.46z"/>
   <path id="_1_11" class="fil2" d="M7198.33 3955.73c-87.35,-110.07 -50.6,-109.26 -3.02,-112.34l311.99 0c10.42,-0.32 18.71,2.01 25.95,13.65l299.09 409.03c25.59,59.55 15.43,93.86 -32.1,101.65l-256.09 0c-15.04,0 -21.1,-3.62 -27.59,-13.52l-318.24 -398.46z"/>
  </g>
  <g>
   <path class="fil1 str5" d="M7845.49 4688.74l-2.69 740.47c0,15.16 8.32,23.01 22.91,23.01l250.94 0c14.33,-1.1 23.06,-9.83 23.06,-23.4l0 -665.19 607.25 -834.63c33.59,-65.1 0.45,-88.62 -53.5,-85.62l-252.99 0c-10.39,0 -11,2.76 -13.97,7.48l-581.01 837.87z"/>
   <path id="_1_12" class="fil2" d="M7845.49 4688.74l-2.69 740.47c0,15.16 8.32,23.01 22.91,23.01l250.94 0c14.33,-1.1 23.06,-9.83 23.06,-23.4l0 -665.19 607.25 -834.63c33.59,-65.1 0.45,-88.62 -53.5,-85.62l-252.99 0c-10.39,0 -11,2.76 -13.97,7.48l-581.01 837.87z"/>
  </g>
  <g>
   <path class="fil1 str6" d="M6458.81 4137.31l-847.87 -2.71c-14.07,0 -22.98,-7.42 -22.98,-22.54l0 -243.85c-0.24,-19.85 6.2,-23.55 23.34,-23.03l913.05 0c417.78,13.37 596.84,832.92 92.8,996.41l303.31 496.82c11.75,70.88 -14.46,109.68 -79.17,113.22l-213.63 0c-12.22,0 -24.24,-3.86 -27.51,-16.11l-296.95 -550.24 -398.53 0 0 543.51c0,14.72 -7.17,22.54 -22.98,23.34l-270.69 0c-13.91,0 -23.01,-6.86 -23.01,-22.25l0 -825.1c0,-11.65 -1.43,-22.51 23.27,-22.51l847.54 0c195.62,17.56 218.03,-414.71 0,-444.96z"/>
   <path id="_1_13" class="fil2" d="M6458.81 4137.31l-847.87 -2.71c-14.07,0 -22.98,-7.42 -22.98,-22.54l0 -243.85c-0.24,-19.85 6.2,-23.55 23.34,-23.03l913.05 0c417.78,13.37 596.84,832.92 92.8,996.41l303.31 496.82c11.75,70.88 -14.46,109.68 -79.17,113.22l-213.63 0c-12.22,0 -24.24,-3.86 -27.51,-16.11l-296.95 -550.24 -398.53 0 0 543.51c0,14.72 -7.17,22.54 -22.98,23.34l-270.69 0c-13.91,0 -23.01,-6.86 -23.01,-22.25l0 -825.1c0,-11.65 -1.43,-22.51 23.27,-22.51l847.54 0c195.62,17.56 218.03,-414.71 0,-444.96z"/>
  </g>
  <g>
   <path class="fil1 str7" d="M1415.21 3845.61l-285.78 0c-18.78,0 -23.74,7.38 -23.74,23.14 0,0.15 0,0.54 0,0.67 -2.9,334.97 108.09,1172.68 -286.67,1319.6 -0.06,0 -0.36,0.13 -0.39,0.13 -7.16,2.71 -22.17,8.49 -21.89,22.49l0 211.64c-0.97,14.73 0.03,26.26 18.53,24.83 0.37,-0.03 0.8,-0.1 1.17,-0.13 331.38,-39.14 575.29,-198.43 612.83,-641.28l9.43 -938.87c0.34,-15.59 -9.46,-21.92 -23.48,-22.22z"/>
   <path id="_1_14" class="fil2" d="M1415.21 3845.61l-285.78 0c-18.78,0 -23.74,7.38 -23.74,23.14 0,0.15 0,0.54 0,0.67 -2.9,334.97 108.09,1172.68 -286.67,1319.6 -0.06,0 -0.36,0.13 -0.39,0.13 -7.16,2.71 -22.17,8.49 -21.89,22.49l0 211.64c-0.97,14.73 0.03,26.26 18.53,24.83 0.37,-0.03 0.8,-0.1 1.17,-0.13 331.38,-39.14 575.29,-198.43 612.83,-641.28l9.43 -938.87c0.34,-15.59 -9.46,-21.92 -23.48,-22.22z"/>
  </g>
  <g>
   <path class="fil3 str3" d="M4455.39 4101.86l0 -0.18 1.31 -241.14 0 -0.37c0.1,-7.5 3.21,-13.65 17.06,-13.14 0.15,0 0.31,0.03 0.41,0.03 927.01,58.81 911.95,1517.12 -1.57,1600.09 0,0 -0.13,0 -0.13,0 -14.35,1.85 -16.03,-1.38 -15.85,-12.54l0 -0.54 0 -269.7 0 -0.16c-0.41,-6.47 0.36,-11.34 9.44,-11.57 0.03,0 0.06,-0.03 0.1,-0.03 575.7,-126.02 472.23,-1004.45 -0.1,-1038.57 0,0 -0.13,0 -0.13,0 -10.4,0.19 -12.01,-2.92 -10.53,-12.17z"/>
   <path id="_1_15" class="fil2" d="M4455.39 4101.86l0 -0.18 1.31 -241.14 0 -0.37c0.1,-7.5 3.21,-13.65 17.06,-13.14 0.15,0 0.31,0.03 0.41,0.03 927.01,58.81 911.95,1517.12 -1.57,1600.09 0,0 -0.13,0 -0.13,0 -14.35,1.85 -16.03,-1.38 -15.85,-12.54l0 -0.54 0 -269.7 0 -0.16c-0.41,-6.47 0.36,-11.34 9.44,-11.57 0.03,0 0.06,-0.03 0.1,-0.03 575.7,-126.02 472.23,-1004.45 -0.1,-1038.57 0,0 -0.13,0 -0.13,0 -10.4,0.19 -12.01,-2.92 -10.53,-12.17z"/>
  </g>
 </g>
</svg>
