<?xml version="1.0" encoding="UTF-8"?>
<!DOCTYPE svg PUBLIC "-//W3C//DTD SVG 1.1//EN" "http://www.w3.org/Graphics/SVG/1.1/DTD/svg11.dtd">
<!-- Creator: CorelDRAW (Evaluation Version) -->
<svg xmlns="http://www.w3.org/2000/svg" xml:space="preserve" width="151.638mm" height="94.3187mm" version="1.1" style="shape-rendering:geometricPrecision; text-rendering:geometricPrecision; image-rendering:optimizeQuality; fill-rule:evenodd; clip-rule:evenodd"
viewBox="0 0 15227.96 9484.07"
 xmlns:xlink="http://www.w3.org/1999/xlink"
 xmlns:xodm="http://www.corel.com/coreldraw/odm/2003">
 <defs>
  <style type="text/css">
   <![CDATA[
    .str3 {stroke:#1C1B18;stroke-width:7.66;stroke-miterlimit:22.9256}
    .str0 {stroke:#1C1B18;stroke-width:35.47;stroke-linecap:round;stroke-linejoin:round;stroke-miterlimit:22.9256}
    .str7 {stroke:#1C1B18;stroke-width:35.47;stroke-linecap:round;stroke-linejoin:round;stroke-miterlimit:22.9256}
    .str6 {stroke:#1C1B18;stroke-width:35.48;stroke-linecap:round;stroke-linejoin:round;stroke-miterlimit:22.9256}
    .str2 {stroke:#1C1B18;stroke-width:35.48;stroke-linecap:round;stroke-linejoin:round;stroke-miterlimit:22.9256}
    .str4 {stroke:#1C1B18;stroke-width:35.51;stroke-linecap:round;stroke-linejoin:round;stroke-miterlimit:22.9256}
    .str5 {stroke:#1C1B18;stroke-width:35.51;stroke-linecap:round;stroke-linejoin:round;stroke-miterlimit:22.9256}
    .str1 {stroke:#1C1B18;stroke-width:35.51;stroke-linecap:round;stroke-linejoin:round;stroke-miterlimit:22.9256}
    .fil1 {fill:none}
    .fil3 {fill:none;fill-rule:nonzero}
    .fil2 {fill:#1C1B18}
    .fil0 {fill:#00E2C7}
   ]]>
  </style>
 </defs>
 <g id="Layer_x0020_1">
  <metadata id="CorelCorpID_0Corel-Layer"/>
  <g id="_229011488">
   <g>
    <path class="fil0" d="M10711.71 141.3c-5706.5,-1030.39 -7821.58,3861.16 -4860.78,5401.66 -2247.36,-2075.59 433.84,-5040.45 4204.6,-4286.92l656.18 -1114.75z"/>
    <path class="fil0" d="M9645.77 2071.8c-3500.05,-720.81 -5501.21,2219.33 -3335.32,3479.2 -1197.76,-1368.77 357.7,-2925.45 2849.52,-2429.24l485.8 -1049.96z"/>
    <path class="fil0" d="M8824.73 3784.9c-1954.48,-353.51 -3147.23,652.53 -2157.07,1732.9 -486.62,-1221.36 749.62,-1385.42 1957.3,-1201.8l199.77 -531.1z"/>
   </g>
   <g>
    <path class="fil1 str0" d="M58.5 6676.87l496.18 0c32.6,0 41.23,12.82 41.23,40.19 0,0.23 0,0.92 0,1.15 5.06,581.57 -187.66,2036.02 497.73,2291.13 0.11,0 0.63,0.23 0.69,0.23 12.42,4.72 38.46,14.72 38,39.03l0 367.45c1.67,25.59 -0.06,45.6 -32.2,43.13 -0.63,-0.06 -1.38,-0.17 -2.01,-0.23 -575.35,-67.96 -998.86,-344.51 -1064.01,-1113.4l-16.38 -1630.1c-0.58,-27.08 16.44,-38.06 40.76,-38.58z"/>
    <path id="_1" class="fil2" d="M58.5 6676.87l496.18 0c32.6,0 41.23,12.82 41.23,40.19 0,0.23 0,0.92 0,1.15 5.06,581.57 -187.66,2036.02 497.73,2291.13 0.11,0 0.63,0.23 0.69,0.23 12.42,4.72 38.46,14.72 38,39.03l0 367.45c1.67,25.59 -0.06,45.6 -32.2,43.13 -0.63,-0.06 -1.38,-0.17 -2.01,-0.23 -575.35,-67.96 -998.86,-344.51 -1064.01,-1113.4l-16.38 -1630.1c-0.58,-27.08 16.44,-38.06 40.76,-38.58z"/>
   </g>
   <g>
    <path class="fil1 str1" d="M3122.08 6870.31c-130.83,-164.99 -35.44,-191.44 14.89,-195.04l521.74 0c23.99,1.3 29.83,-4.89 43.09,18.09l521.07 715.77c53.08,65.5 26.8,170.27 -55.73,176.5l-457.7 0c-10.73,-0.06 -18.09,2.87 -24.66,-9.88l-562.7 -705.44z"/>
    <path id="_1_0" class="fil2" d="M3122.08 6870.31c-130.83,-164.99 -35.44,-191.44 14.89,-195.04l521.74 0c23.99,1.3 29.83,-4.89 43.09,18.09l521.07 715.77c53.08,65.5 26.8,170.27 -55.73,176.5l-457.7 0c-10.73,-0.06 -18.09,2.87 -24.66,-9.88l-562.7 -705.44z"/>
   </g>
   <g>
    <path class="fil1 str2" d="M3065.86 9274.69l0 156.51c-0.69,22.22 14.64,34.28 37.55,34.22l471.83 -0.06c30.49,0 28.99,-4.47 44.32,-20.49l786.46 -995.4 685.31 1005.68c6.36,11.48 12.97,9.93 22.1,10.22l456.62 0c12.23,1.15 15.73,-4.01 18.08,-11.42l80.33 -169.77c1.89,-6.08 1.66,-12.41 -2.53,-19l-923.39 -1245.15c-5,-8.56 -4.42,-16.7 1.21,-24.75l920.13 -1152.48c5.17,-8.33 4.82,-16.48 -0.34,-24.58l-116.78 -146.11c-4.54,-6.5 -11.54,-7.75 -17.86,-7.58l-439.74 0c-9.82,0 -14.42,0.11 -19.47,8.39l-2003.82 2601.8z"/>
    <path id="_1_1" class="fil2" d="M3065.86 9274.69l0 156.51c-0.69,22.22 14.64,34.28 37.55,34.22l471.83 -0.06c30.49,0 28.99,-4.47 44.32,-20.49l786.46 -995.4 685.31 1005.68c6.36,11.48 12.97,9.93 22.1,10.22l456.62 0c12.23,1.15 15.73,-4.01 18.08,-11.42l80.33 -169.77c1.89,-6.08 1.66,-12.41 -2.53,-19l-923.39 -1245.15c-5,-8.56 -4.42,-16.7 1.21,-24.75l920.13 -1152.48c5.17,-8.33 4.82,-16.48 -0.34,-24.58l-116.78 -146.11c-4.54,-6.5 -11.54,-7.75 -17.86,-7.58l-439.74 0c-9.82,0 -14.42,0.11 -19.47,8.39l-2003.82 2601.8z"/>
   </g>
   <g>
    <path class="fil3 str3" d="M7406.2 7121.77l0 -0.29 -2.27 -418.69 0 -0.63c-0.17,-13.04 -5.59,-23.7 -29.62,-22.83 -0.24,0 -0.53,0.06 -0.7,0.06 -1609.49,102.1 -1583.35,2634.05 2.74,2778.11 0,0 0.23,0 0.23,0 24.92,3.21 27.82,-2.38 27.53,-21.77l0 -0.93 0 -468.28 0 -0.29c0.7,-11.23 -0.63,-19.67 -16.41,-20.08 -0.06,0 -0.12,-0.06 -0.17,-0.06 -999.54,-218.79 -819.92,-1743.94 0.17,-1803.2 0,0 0.23,0 0.23,0 18.05,0.35 20.84,-5.07 18.28,-21.13z"/>
    <path id="_1_2" class="fil2" d="M7406.2 7121.77l0 -0.29 -2.27 -418.69 0 -0.63c-0.17,-13.04 -5.59,-23.7 -29.62,-22.83 -0.24,0 -0.53,0.06 -0.7,0.06 -1609.49,102.1 -1583.35,2634.05 2.74,2778.11 0,0 0.23,0 0.23,0 24.92,3.21 27.82,-2.38 27.53,-21.77l0 -0.93 0 -468.28 0 -0.29c0.7,-11.23 -0.63,-19.67 -16.41,-20.08 -0.06,0 -0.12,-0.06 -0.17,-0.06 -999.54,-218.79 -819.92,-1743.94 0.17,-1803.2 0,0 0.23,0 0.23,0 18.05,0.35 20.84,-5.07 18.28,-21.13z"/>
   </g>
   <g>
    <path class="fil1 str4" d="M12497.93 6868.05c-151.66,-191.1 -87.85,-189.7 -5.22,-195.03l541.69 0c18.09,-0.56 32.47,3.48 45.05,23.7l519.27 710.15c44.43,103.42 26.8,162.97 -55.73,176.5l-444.61 0c-26.12,0 -36.63,-6.28 -47.92,-23.48l-552.53 -691.84z"/>
    <path id="_1_3" class="fil2" d="M12497.93 6868.05c-151.66,-191.1 -87.85,-189.7 -5.22,-195.03l541.69 0c18.09,-0.56 32.47,3.48 45.05,23.7l519.27 710.15c44.43,103.42 26.8,162.97 -55.73,176.5l-444.61 0c-26.12,0 -36.63,-6.28 -47.92,-23.48l-552.53 -691.84z"/>
   </g>
   <g>
    <path class="fil1 str5" d="M13621.56 8140.73l-4.66 1285.65c0,26.28 14.43,39.94 39.77,39.94l435.68 0c24.89,-1.91 40.05,-17.07 40.05,-40.61l0 -1154.94 1054.33 -1449.12c58.31,-113.02 0.78,-153.87 -92.91,-148.64l-439.22 0c-18.03,0 -19.1,4.78 -24.27,12.97l-1008.77 1454.74z"/>
    <path id="_1_4" class="fil2" d="M13621.56 8140.73l-4.66 1285.65c0,26.28 14.43,39.94 39.77,39.94l435.68 0c24.89,-1.91 40.05,-17.07 40.05,-40.61l0 -1154.94 1054.33 -1449.12c58.31,-113.02 0.78,-153.87 -92.91,-148.64l-439.22 0c-18.03,0 -19.1,4.78 -24.27,12.97l-1008.77 1454.74z"/>
   </g>
   <g>
    <path class="fil1 str6" d="M11213.97 7183.34l-1472.11 -4.7c-24.41,0 -39.9,-12.9 -39.9,-39.16l0 -423.39c-0.39,-34.45 10.78,-40.87 40.53,-39.95l1585.26 0c725.36,23.22 1036.27,1446.14 161.14,1730l526.62 862.59c20.4,123.08 -25.11,190.43 -137.47,196.56l-370.93 0c-21.22,0 -42.08,-6.71 -47.75,-27.97l-515.56 -955.34 -691.94 0 0 943.65c0,25.57 -12.44,39.16 -39.9,40.53l-469.98 0c-24.13,0 -39.96,-11.93 -39.96,-38.64l0 -1432.55c0,-20.23 -2.46,-39.09 40.41,-39.09l1471.54 0c339.64,30.5 378.56,-720.03 0,-772.53z"/>
    <path id="_1_5" class="fil2" d="M11213.97 7183.34l-1472.11 -4.7c-24.41,0 -39.9,-12.9 -39.9,-39.16l0 -423.39c-0.39,-34.45 10.78,-40.87 40.53,-39.95l1585.26 0c725.36,23.22 1036.27,1446.14 161.14,1730l526.62 862.59c20.4,123.08 -25.11,190.43 -137.47,196.56l-370.93 0c-21.22,0 -42.08,-6.71 -47.75,-27.97l-515.56 -955.34 -691.94 0 0 943.65c0,25.57 -12.44,39.16 -39.9,40.53l-469.98 0c-24.13,0 -39.96,-11.93 -39.96,-38.64l0 -1432.55c0,-20.23 -2.46,-39.09 40.41,-39.09l1471.54 0c339.64,30.5 378.56,-720.03 0,-772.53z"/>
   </g>
   <g>
    <path class="fil1 str7" d="M2457.11 6676.87l-496.18 0c-32.6,0 -41.23,12.82 -41.23,40.19 0,0.23 0,0.92 0,1.15 -5.06,581.57 187.66,2036.02 -497.73,2291.13 -0.11,0 -0.63,0.23 -0.69,0.23 -12.42,4.72 -38.46,14.72 -38,39.03l0 367.45c-1.67,25.59 0.06,45.6 32.2,43.13 0.63,-0.06 1.38,-0.17 2.01,-0.23 575.35,-67.96 998.86,-344.51 1064.01,-1113.4l16.38 -1630.1c0.58,-27.08 -16.44,-38.06 -40.76,-38.58z"/>
    <path id="_1_6" class="fil2" d="M2457.11 6676.87l-496.18 0c-32.6,0 -41.23,12.82 -41.23,40.19 0,0.23 0,0.92 0,1.15 -5.06,581.57 187.66,2036.02 -497.73,2291.13 -0.11,0 -0.63,0.23 -0.69,0.23 -12.42,4.72 -38.46,14.72 -38,39.03l0 367.45c-1.67,25.59 0.06,45.6 32.2,43.13 0.63,-0.06 1.38,-0.17 2.01,-0.23 575.35,-67.96 998.86,-344.51 1064.01,-1113.4l16.38 -1630.1c0.58,-27.08 -16.44,-38.06 -40.76,-38.58z"/>
   </g>
   <g>
    <path class="fil3 str3" d="M7735.56 7121.77l0 -0.29 2.27 -418.69 0 -0.63c0.17,-13.04 5.59,-23.7 29.62,-22.83 0.24,0 0.53,0.06 0.7,0.06 1609.49,102.1 1583.35,2634.05 -2.74,2778.11 0,0 -0.23,0 -0.23,0 -24.92,3.21 -27.82,-2.38 -27.53,-21.77l0 -0.93 0 -468.28 0 -0.29c-0.7,-11.23 0.63,-19.67 16.41,-20.08 0.06,0 0.12,-0.06 0.17,-0.06 999.54,-218.79 819.92,-1743.94 -0.17,-1803.2 0,0 -0.23,0 -0.23,0 -18.05,0.35 -20.84,-5.07 -18.28,-21.13z"/>
    <path id="_1_7" class="fil2" d="M7735.56 7121.77l0 -0.29 2.27 -418.69 0 -0.63c0.17,-13.04 5.59,-23.7 29.62,-22.83 0.24,0 0.53,0.06 0.7,0.06 1609.49,102.1 1583.35,2634.05 -2.74,2778.11 0,0 -0.23,0 -0.23,0 -24.92,3.21 -27.82,-2.38 -27.53,-21.77l0 -0.93 0 -468.28 0 -0.29c-0.7,-11.23 0.63,-19.67 16.41,-20.08 0.06,0 0.12,-0.06 0.17,-0.06 999.54,-218.79 819.92,-1743.94 -0.17,-1803.2 0,0 -0.23,0 -0.23,0 -18.05,0.35 -20.84,-5.07 -18.28,-21.13z"/>
   </g>
  </g>
 </g>
</svg>
