<svg fill="none" height="44" viewBox="0 0 196 44" width="196" xmlns="http://www.w3.org/2000/svg">
<path d="M53.1608 40.5186H51L55.4199 29.1443H57.7444L62.1643 40.5186H59.9053L58.6448 37.1176H54.4377L53.1608 40.5186ZM56.5331 31.5186L55.1252 35.2566H57.9409L56.5331 31.5186Z" fill="white"></path>
<path d="M67.3861 30.7166C67.0096 30.7166 66.715 30.8128 66.5185 31.0053C66.3221 31.1979 66.2239 31.4866 66.2239 31.8717V32.9144H69.5306V31.8717C69.5306 31.0214 69.8089 30.3316 70.3491 29.8021C70.8893 29.2727 71.5932 29 72.4445 29C72.6736 29 72.9028 29.016 73.1156 29.0481C73.3284 29.0802 73.5413 29.1444 73.7704 29.2086L73.3612 30.8449C73.2139 30.7968 73.0829 30.7807 72.9847 30.7487C72.8701 30.7326 72.7719 30.7166 72.6573 30.7166C72.2808 30.7166 71.9861 30.8128 71.7897 31.0053C71.5932 31.1979 71.495 31.4866 71.495 31.8717V32.9144H74.0324V34.5989H71.495V40.5187H69.5306V34.5989H66.2239V40.5187H64.2595V34.5989H62.4424V34.0374L63.441 32.9144H64.2431V31.8717C64.2431 31.0214 64.5214 30.3316 65.0616 29.8021C65.6018 29.2727 66.3057 29 67.1569 29C67.3861 29 67.6317 29.016 67.8445 29.0481C68.0737 29.0802 68.2865 29.1444 68.4993 29.2086L68.0737 30.8449C67.9263 30.7968 67.7954 30.7807 67.6972 30.7487C67.6153 30.7326 67.5007 30.7166 67.3861 30.7166Z" fill="white"></path>
<path d="M76.2426 31.7273C75.8989 31.7273 75.6042 31.615 75.375 31.4065C75.1458 31.1819 75.0312 30.9091 75.0312 30.5722C75.0312 30.2353 75.1458 29.9626 75.375 29.738C75.6042 29.5134 75.8825 29.4011 76.2426 29.4011C76.5864 29.4011 76.8647 29.5134 77.0939 29.738C77.3231 29.9626 77.4376 30.2353 77.4376 30.5722C77.4376 30.9091 77.3231 31.1819 77.1102 31.4065C76.8811 31.615 76.5864 31.7273 76.2426 31.7273ZM77.2085 40.5188H75.2441V32.9145H77.2085V40.5188Z" fill="white"></path>
<path d="M81.4322 40.5186H79.4678V29.1443H81.4322V40.5186Z" fill="white"></path>
<path d="M84.6899 31.7273C84.3461 31.7273 84.0515 31.615 83.8223 31.4065C83.5931 31.1819 83.4785 30.9091 83.4785 30.5722C83.4785 30.2353 83.5931 29.9626 83.8223 29.738C84.0515 29.5134 84.3298 29.4011 84.6899 29.4011C85.0337 29.4011 85.312 29.5134 85.5411 29.738C85.7703 29.9626 85.8849 30.2353 85.8849 30.5722C85.8849 30.9091 85.7703 31.1819 85.5575 31.4065C85.3283 31.615 85.0337 31.7273 84.6899 31.7273ZM85.6557 40.5188H83.6913V32.9145H85.6557V40.5188Z" fill="white"></path>
<path d="M94.3645 40.5185H92.6293L92.4819 39.4758C92.1873 39.8608 91.8108 40.1496 91.3851 40.3581C90.9595 40.5667 90.4684 40.6629 89.9446 40.6629C89.1916 40.6629 88.5859 40.4544 88.1275 40.0533C87.6691 39.6522 87.44 39.1068 87.44 38.4169C87.44 37.7752 87.6691 37.2619 88.1439 36.8447C88.6186 36.4276 89.3716 36.1068 90.4357 35.8822L92.4165 35.449C92.3346 35.08 92.1709 34.8073 91.9254 34.6308C91.6798 34.4544 91.3524 34.3581 90.9432 34.3581C90.5012 34.3581 90.141 34.4544 89.8464 34.6469C89.5681 34.8394 89.3716 35.1282 89.2734 35.5132L87.4072 35.1763C87.62 34.4062 88.0293 33.8127 88.6677 33.3795C89.2898 32.9463 90.0755 32.7378 90.9923 32.7378C92.0727 32.7378 92.9076 33.0105 93.5132 33.572C94.1026 34.1335 94.3972 34.9036 94.3972 35.9143V40.5185H94.3645ZM89.4371 38.2886C89.4371 38.5453 89.519 38.7378 89.6827 38.8822C89.8464 39.0266 90.0755 39.0907 90.3702 39.0907C90.9759 39.0907 91.467 38.9143 91.8599 38.5453C92.2528 38.1763 92.4492 37.679 92.4492 37.0693V36.9089L90.5503 37.3581C90.141 37.4544 89.8627 37.5667 89.699 37.7271C89.519 37.8554 89.4371 38.048 89.4371 38.2886Z" fill="white"></path>
<path d="M95.4277 34.599V34.0375L98.3252 31.1819H98.8654V32.9145H101.55V34.599H98.8654V37.7915C98.8654 38.1605 98.9637 38.4332 99.1437 38.6257C99.3238 38.8022 99.6021 38.8985 99.9786 38.8985C100.126 38.8985 100.29 38.8824 100.453 38.8503C100.617 38.8182 100.813 38.7541 101.026 38.6578L101.452 40.23C101.157 40.3744 100.846 40.4867 100.519 40.5509C100.191 40.6311 99.864 40.6632 99.5366 40.6632C98.7181 40.6632 98.0797 40.4546 97.6049 40.0215C97.1302 39.5883 96.901 39.0108 96.901 38.2567V34.599H95.4277Z" fill="white"></path>
<path d="M106.429 40.663C105.185 40.663 104.203 40.3101 103.45 39.5881C102.697 38.8662 102.32 37.9197 102.32 36.7486C102.32 35.5935 102.697 34.6309 103.45 33.8769C104.203 33.1229 105.169 32.7539 106.331 32.7539C107.477 32.7539 108.41 33.0908 109.114 33.7806C109.818 34.4705 110.178 35.3528 110.178 36.4437C110.178 36.5881 110.178 36.7325 110.162 36.8769C110.145 37.0213 110.129 37.1657 110.096 37.3101H104.334C104.416 37.8716 104.628 38.2887 104.989 38.5774C105.349 38.8662 105.823 39.0106 106.413 39.0106C106.888 39.0106 107.28 38.9143 107.591 38.7379C107.902 38.5614 108.132 38.2887 108.263 37.9357L110.096 38.3047C109.867 39.0587 109.441 39.6523 108.786 40.0694C108.148 40.4544 107.362 40.663 106.429 40.663ZM106.331 34.3421C105.856 34.3421 105.447 34.4705 105.103 34.7272C104.759 34.9839 104.53 35.3528 104.399 35.8341H108.132C108.05 35.3528 107.853 34.9999 107.542 34.7272C107.231 34.4705 106.822 34.3421 106.331 34.3421Z" fill="white"></path>
<path d="M117.806 40.5186H115.678V29.1443H120.261C121.44 29.1443 122.389 29.4812 123.126 30.155C123.863 30.8288 124.239 31.7111 124.239 32.77C124.239 33.8288 123.863 34.6951 123.126 35.3689C122.389 36.0587 121.424 36.3956 120.261 36.3956H117.822V40.5186H117.806ZM122.095 32.786C122.095 32.2405 121.931 31.8074 121.587 31.5026C121.244 31.1817 120.785 31.0373 120.212 31.0373H117.822V34.5186H120.212C120.785 34.5186 121.244 34.3582 121.587 34.0534C121.931 33.7486 122.095 33.3154 122.095 32.786Z" fill="white"></path>
<path d="M127.988 40.5188H126.023V32.9145H127.857L127.971 33.8129C128.233 33.476 128.528 33.2193 128.888 33.0428C129.248 32.8663 129.641 32.7861 130.1 32.7861C130.231 32.7861 130.361 32.7861 130.46 32.8022C130.574 32.8182 130.705 32.8503 130.853 32.8824L130.623 34.7594C130.509 34.7273 130.394 34.7113 130.263 34.6952C130.132 34.6792 129.985 34.6792 129.821 34.6792C129.281 34.6792 128.839 34.8556 128.495 35.2086C128.152 35.5615 127.988 36.0268 127.988 36.6043V40.5188Z" fill="white"></path>
<path d="M131.557 36.7004C131.557 35.5613 131.95 34.6148 132.735 33.8608C133.521 33.1068 134.503 32.7378 135.682 32.7378C136.861 32.7378 137.859 33.1068 138.645 33.8608C139.431 34.6148 139.823 35.5613 139.823 36.7004C139.823 37.8394 139.431 38.7859 138.661 39.5399C137.875 40.2939 136.893 40.6629 135.698 40.6629C134.503 40.6629 133.521 40.2939 132.735 39.5399C131.95 38.802 131.557 37.8554 131.557 36.7004ZM137.761 36.7004C137.761 36.0426 137.564 35.5132 137.188 35.1121C136.811 34.7111 136.304 34.5185 135.682 34.5185C135.06 34.5185 134.552 34.7111 134.159 35.1121C133.783 35.5132 133.587 36.0426 133.587 36.7004C133.587 37.3581 133.783 37.8875 134.159 38.2886C134.536 38.6897 135.043 38.8982 135.682 38.8982C136.32 38.8982 136.811 38.6897 137.188 38.2886C137.581 37.8875 137.761 37.3581 137.761 36.7004Z" fill="white"></path>
<path d="M144.653 40.5026C143.573 40.5026 142.689 40.1336 141.985 39.3956C141.281 38.6576 140.921 37.7432 140.921 36.6363C140.921 35.5293 141.281 34.5988 141.985 33.8609C142.689 33.1229 143.589 32.7539 144.653 32.7539C145.112 32.7539 145.554 32.8341 145.963 33.0106C146.372 33.1871 146.732 33.4277 147.043 33.7486L147.174 32.9143H148.942V40.3903C148.942 41.4651 148.582 42.3475 147.878 43.0052C147.174 43.663 146.225 43.9999 145.03 43.9999C143.982 43.9999 143.131 43.7593 142.46 43.3101C141.789 42.8448 141.379 42.2191 141.216 41.417L143.229 41.032C143.327 41.4331 143.524 41.7218 143.818 41.9304C144.129 42.1389 144.522 42.2352 145.013 42.2352C145.635 42.2352 146.11 42.0908 146.454 41.786C146.798 41.4812 146.961 41.0641 146.961 40.5186V39.556C146.65 39.8609 146.307 40.0855 145.914 40.2459C145.505 40.4224 145.095 40.5026 144.653 40.5026ZM144.964 34.5186C144.359 34.5186 143.884 34.7111 143.524 35.0962C143.164 35.4812 142.967 35.9945 142.967 36.6202C142.967 37.2459 143.147 37.7753 143.524 38.1443C143.884 38.5293 144.375 38.7218 144.964 38.7218C145.57 38.7218 146.045 38.5293 146.405 38.1443C146.765 37.7593 146.961 37.2459 146.961 36.6202C146.961 35.9785 146.781 35.4812 146.405 35.0962C146.045 34.7111 145.554 34.5186 144.964 34.5186Z" fill="white"></path>
<path d="M153.166 40.5188H151.201V32.9145H153.035L153.149 33.8129C153.411 33.476 153.706 33.2193 154.066 33.0428C154.426 32.8663 154.819 32.7861 155.277 32.7861C155.408 32.7861 155.539 32.7861 155.637 32.8022C155.752 32.8182 155.883 32.8503 156.03 32.8824L155.801 34.7594C155.687 34.7273 155.572 34.7113 155.441 34.6952C155.31 34.6792 155.163 34.6792 154.999 34.6792C154.459 34.6792 154.017 34.8556 153.673 35.2086C153.329 35.5615 153.166 36.0268 153.166 36.6043V40.5188Z" fill="white"></path>
<path d="M163.757 40.5185H162.022L161.875 39.4758C161.58 39.8608 161.203 40.1496 160.778 40.3581C160.352 40.5667 159.861 40.6629 159.337 40.6629C158.584 40.6629 157.978 40.4544 157.52 40.0533C157.062 39.6522 156.833 39.1068 156.833 38.4169C156.833 37.7752 157.062 37.2619 157.536 36.8447C158.011 36.4276 158.764 36.1068 159.828 35.8822L161.809 35.449C161.727 35.08 161.563 34.8073 161.318 34.6308C161.072 34.4544 160.745 34.3581 160.336 34.3581C159.894 34.3581 159.534 34.4544 159.239 34.6469C158.961 34.8394 158.764 35.1282 158.666 35.5132L156.8 35.1763C157.013 34.4062 157.422 33.8127 158.06 33.3795C158.682 32.9463 159.468 32.7378 160.385 32.7378C161.465 32.7378 162.3 33.0105 162.906 33.572C163.495 34.1335 163.79 34.9036 163.79 35.9143V40.5185H163.757ZM158.83 38.2886C158.83 38.5453 158.912 38.7378 159.075 38.8822C159.239 39.0266 159.468 39.0907 159.763 39.0907C160.368 39.0907 160.86 38.9143 161.252 38.5453C161.645 38.1763 161.842 37.679 161.842 37.0693V36.9089L159.943 37.3581C159.534 37.4544 159.255 37.5667 159.092 37.7271C158.928 37.8554 158.83 38.048 158.83 38.2886Z" fill="white"></path>
<path d="M167.833 40.5185H165.868V32.9143H167.636L167.751 33.6522C168.029 33.3474 168.324 33.1228 168.651 32.9624C168.978 32.818 169.322 32.7378 169.715 32.7378C170.19 32.7378 170.615 32.8341 170.992 33.0266C171.368 33.2191 171.68 33.4918 171.925 33.8608C172.252 33.4918 172.596 33.203 172.973 33.0266C173.349 32.8341 173.775 32.7538 174.233 32.7538C175.052 32.7538 175.723 33.0266 176.23 33.556C176.738 34.0854 177 34.8073 177 35.7218V40.5346H175.035V35.8822C175.035 35.4651 174.921 35.1282 174.708 34.9036C174.495 34.679 174.184 34.5506 173.791 34.5506C173.366 34.5506 173.038 34.6629 172.793 34.9036C172.547 35.1282 172.416 35.4651 172.416 35.8822V40.5346H170.452V35.8822C170.452 35.4651 170.337 35.1282 170.124 34.9036C169.912 34.679 169.601 34.5506 169.208 34.5506C168.782 34.5506 168.455 34.6629 168.209 34.9036C167.964 35.1282 167.833 35.4651 167.833 35.8822V40.5185Z" fill="white"></path>
<path d="M134.621 9.80452C134.621 6.70349 132.657 4.44531 128.892 4.44531H116.731V20.5229H120.725V15.0365H125.455L130.087 20.5229H134.588V20.1731L130.087 14.9411C132.919 14.3845 134.621 12.3808 134.621 9.80452ZM128.45 11.7924H120.741V7.78488H128.45C129.874 7.78488 130.791 8.5164 130.791 9.78862C130.791 11.0926 129.907 11.7924 128.45 11.7924Z" fill="white"></path>
<path d="M195 4.44531H191.252V10.5519H181.186V4.44531H177.144V20.5388H181.186V14.1937H191.252V20.5388H195V4.44531Z" fill="white"></path>
<path d="M106.043 4.44531L101.591 17.9785H101.346L96.8776 4.44531H89.7578V20.5388H93.5714V7.3237H93.8005L98.2525 20.5388H104.39L108.859 7.3237H109.088V20.5388H113.016V4.44531H106.043Z" fill="white"></path>
<path d="M62.539 11.029C61.1314 10.8859 58.4962 10.6473 57.0887 10.5042C55.6974 10.3611 54.8954 9.96351 54.8954 9.07296C54.8954 8.21421 55.7465 7.49859 59.1837 7.49859C62.228 7.49859 65.0268 8.1347 67.4655 9.27969V5.68569C65.0268 4.5566 62.3262 4 58.9709 4C54.2571 4 51 5.90832 51 9.15247C51 11.8877 52.915 13.3826 56.7449 13.7961C58.1362 13.9392 60.4931 14.1459 62.1462 14.2731C63.9466 14.4163 64.4703 14.957 64.4703 15.7521C64.4703 16.8494 63.21 17.5173 60.0184 17.5173C56.7777 17.5173 53.4878 16.4836 51.1473 15.0365V18.7418C53.0296 19.9663 56.2703 21 59.8875 21C65.0268 21 68.333 19.0757 68.333 15.6249C68.3658 13.0168 66.5981 11.4425 62.539 11.029Z" fill="white"></path>
<path d="M70.9844 4.44531V20.5388H86.4188V17.247H74.798V13.9869H86.2224V10.7269H74.798V7.73717H86.4188V4.44531H70.9844Z" fill="white"></path>
<path d="M168.878 11.029C167.47 10.8859 164.835 10.6473 163.428 10.5042C162.036 10.3611 161.234 9.96351 161.234 9.07296C161.234 8.21421 162.085 7.49859 165.523 7.49859C168.567 7.49859 171.366 8.1347 173.804 9.27969V5.68569C171.366 4.5566 168.665 4 165.31 4C160.596 4 157.339 5.90832 157.339 9.15247C157.339 11.8877 159.254 13.3826 163.084 13.7961C164.475 13.9392 166.832 14.1459 168.485 14.2731C170.285 14.4163 170.809 14.957 170.809 15.7521C170.809 16.8494 169.549 17.5173 166.357 17.5173C163.117 17.5173 159.827 16.4836 157.486 15.0365V18.7418C159.368 19.9663 162.609 21 166.226 21C171.366 21 174.672 19.0757 174.672 15.6249C174.705 13.0168 172.937 11.4425 168.878 11.029Z" fill="white"></path>
<path d="M150.628 4.44531V12.6829C150.628 15.7998 148.68 17.5173 145.75 17.5173C142.804 17.5173 140.873 15.8316 140.873 12.6352V4.44531H136.896V12.2694C136.896 18.1057 140.644 21 145.816 21C150.775 21 154.621 18.2329 154.621 12.4603V4.44531H150.628Z" fill="white"></path>
<path d="M37.0869 12.8363C37.0869 13.6385 36.6808 13.7695 35.6736 13.7695C34.6014 13.7695 34.4065 13.5894 34.2928 12.7708C34.0816 10.6914 32.6845 8.92317 30.3453 8.7267C29.598 8.66121 29.4193 8.38287 29.4193 7.44962C29.4193 6.58187 29.5493 6.17254 30.2153 6.17254C34.2765 6.18892 37.0869 9.47985 37.0869 12.8363ZM43 12.8363C43 6.59824 38.8088 0 29.1269 0H9.89309C9.50321 0 9.25954 0.196474 9.25954 0.556675C9.25954 0.753149 9.40574 0.93325 9.5357 1.03149C10.2342 1.58816 11.2739 2.21033 12.6385 2.89799C13.9705 3.56927 15.0102 4.01133 16.0499 4.43703C16.4885 4.61713 16.6509 4.8136 16.6509 5.05919C16.6509 5.40302 16.4073 5.61587 15.9362 5.61587H0.666037C0.211182 5.61587 0 5.91058 0 6.20529C0 6.45088 0.0812233 6.66373 0.292406 6.87658C1.52701 8.1864 3.50888 9.75819 6.38421 11.5756C8.90215 13.1637 12.0212 14.8829 14.5066 16.0781C14.929 16.2746 15.0589 16.5038 15.0589 16.7494C15.0427 17.0277 14.8315 17.2569 14.3442 17.2569H7.34265C6.95278 17.2569 6.72535 17.4698 6.72535 17.7972C6.72535 17.9773 6.87155 18.2065 7.06649 18.3867C8.65848 19.8438 11.2089 21.432 14.6041 22.8892C19.1364 24.8375 23.7337 26 28.8995 26C38.6951 26 43 18.6159 43 12.8363ZM30.2153 22.0542C25.2119 22.0542 21.0208 17.9446 21.0208 12.8199C21.0208 7.77708 25.1957 3.71663 30.2153 3.71663C35.3487 3.71663 39.3774 7.7607 39.3774 12.8199C39.3612 17.9446 35.3487 22.0542 30.2153 22.0542Z" fill="#FF642D"></path>
</svg>