<svg xmlns="http://www.w3.org/2000/svg" xmlns:xlink="http://www.w3.org/1999/xlink" width="512" zoomAndPan="magnify" viewBox="0 0 384 383.999986" height="512" preserveAspectRatio="xMidYMid meet" version="1.0"><defs><clipPath id="5323a13b09"><path d="M 130 97.976562 L 254 97.976562 L 254 208 L 130 208 Z M 130 97.976562 " clip-rule="nonzero"/></clipPath><clipPath id="7844a82120"><path d="M 41.027344 230 L 64 230 L 64 286.226562 L 41.027344 286.226562 Z M 41.027344 230 " clip-rule="nonzero"/></clipPath><clipPath id="3846bd3aa7"><path d="M 41.027344 230 L 64 230 L 64 286 L 41.027344 286 Z M 41.027344 230 " clip-rule="nonzero"/></clipPath><clipPath id="0c82eb06f2"><path d="M 101 229 L 154 229 L 154 286.226562 L 101 286.226562 Z M 101 229 " clip-rule="nonzero"/></clipPath><clipPath id="db80086e45"><path d="M 158 225 L 193 225 L 193 286.226562 L 158 286.226562 Z M 158 225 " clip-rule="nonzero"/></clipPath><clipPath id="b6c68ef369"><path d="M 310 230 L 343.277344 230 L 343.277344 286.226562 L 310 286.226562 Z M 310 230 " clip-rule="nonzero"/></clipPath><clipPath id="099c6cccdb"><path d="M 233 230 L 280 230 L 280 286.226562 L 233 286.226562 Z M 233 230 " clip-rule="nonzero"/></clipPath><clipPath id="2ee31b5b86"><path d="M 68 230 L 91 230 L 91 286.226562 L 68 286.226562 Z M 68 230 " clip-rule="nonzero"/></clipPath><clipPath id="d6b8d38a96"><path d="M 189 225 L 224 225 L 224 286.226562 L 189 286.226562 Z M 189 225 " clip-rule="nonzero"/></clipPath></defs><rect x="-38.4" width="460.8" fill="#ffffff" y="-38.399999" height="460.799983" fill-opacity="1"/><rect x="-38.4" width="460.8" fill="#ffffff" y="-38.399999" height="460.799983" fill-opacity="1"/><g clip-path="url(#5323a13b09)"><path fill="#00e2c7" d="M 253.636719 100.78125 C 140.375 80.328125 98.394531 177.421875 157.160156 207.996094 C 112.554688 166.800781 165.773438 107.949219 240.613281 122.90625 Z M 253.636719 100.78125 " fill-opacity="1" fill-rule="evenodd"/></g><path fill="#00e2c7" d="M 232.480469 139.097656 C 163.011719 124.789062 123.292969 183.148438 166.28125 208.15625 C 142.507812 180.988281 173.382812 150.089844 222.835938 159.9375 Z M 232.480469 139.097656 " fill-opacity="1" fill-rule="evenodd"/><path fill="#00e2c7" d="M 216.183594 173.101562 C 177.390625 166.085938 153.71875 186.054688 173.371094 207.496094 C 163.714844 183.253906 188.25 180 212.21875 183.644531 Z M 216.183594 173.101562 " fill-opacity="1" fill-rule="evenodd"/><g clip-path="url(#7844a82120)"><path stroke-linecap="round" transform="matrix(0.0198476, 0, 0, 0.0198491, 41.034057, 97.97483)" fill="none" stroke-linejoin="round" d="M 58.508598 6676.84083 L 554.671967 6676.84083 C 587.342779 6676.84083 596.002513 6689.632677 596.002513 6716.987549 C 596.002513 6717.381144 596.002513 6717.971537 596.002513 6718.168335 C 600.922816 7299.705362 408.243745 8754.23672 1093.543566 9009.286462 C 1093.740378 9009.286462 1094.330815 9009.48326 1094.330815 9009.48326 C 1106.729978 9014.206403 1132.709179 9024.243083 1132.315555 9048.64599 L 1132.315555 9416.067184 C 1134.086864 9441.650878 1132.315555 9461.724237 1100.038366 9459.165868 C 1099.44793 9459.165868 1098.660681 9458.96907 1098.070245 9458.96907 C 522.788402 9391.073884 99.248708 9114.376402 34.103895 8345.488022 L 17.768488 6715.413168 C 17.178052 6688.451891 34.103895 6677.431223 58.508598 6676.84083 Z M 58.508598 6676.84083 " stroke="#1c1b18" stroke-width="35.470001" stroke-opacity="1" stroke-miterlimit="22.926001"/></g><g clip-path="url(#3846bd3aa7)"><path fill="#1c1b18" d="M 42.195312 230.503906 L 52.042969 230.503906 C 52.691406 230.503906 52.863281 230.757812 52.863281 231.300781 C 52.863281 231.308594 52.863281 231.320312 52.863281 231.324219 C 52.960938 242.867188 49.136719 271.738281 62.738281 276.800781 C 62.742188 276.800781 62.753906 276.804688 62.753906 276.804688 C 63 276.898438 63.515625 277.097656 63.507812 277.582031 L 63.507812 284.875 C 63.542969 285.382812 63.507812 285.78125 62.867188 285.730469 C 62.855469 285.730469 62.839844 285.726562 62.828125 285.726562 C 51.410156 284.378906 43.003906 278.886719 41.710938 263.625 L 41.386719 231.269531 C 41.375 230.734375 41.710938 230.515625 42.195312 230.503906 Z M 42.195312 230.503906 " fill-opacity="1" fill-rule="evenodd"/></g><path stroke-linecap="round" transform="matrix(0.0198476, 0, 0, 0.0198491, 41.034057, 97.97483)" fill="none" stroke-linejoin="round" d="M 3122.086143 6870.292911 C 2991.20608 6705.376488 3086.65996 6678.808807 3137.043865 6675.266449 L 3658.792809 6675.266449 C 3682.607076 6676.644033 3688.51144 6670.346508 3701.894665 6693.371832 L 4222.856361 7409.12485 C 4275.995635 7474.658464 4249.62281 7579.354808 4167.158529 7585.652333 L 3709.373525 7585.652333 C 3698.745671 7585.652333 3691.26681 7588.4075 3684.77201 7575.812451 Z M 3122.086143 6870.292911 " stroke="#1c1b18" stroke-width="35.509998" stroke-opacity="1" stroke-miterlimit="22.926001"/><path fill="#1c1b18" d="M 103 234.34375 C 100.402344 231.070312 102.296875 230.542969 103.296875 230.472656 L 113.652344 230.472656 C 114.125 230.5 114.242188 230.375 114.507812 230.832031 L 124.847656 245.039062 C 125.902344 246.339844 125.378906 248.417969 123.742188 248.542969 L 114.65625 248.542969 C 114.445312 248.542969 114.296875 248.597656 114.167969 248.347656 Z M 103 234.34375 " fill-opacity="1" fill-rule="evenodd"/><g clip-path="url(#0c82eb06f2)"><path stroke-linecap="round" transform="matrix(0.0198476, 0, 0, 0.0198491, 41.034057, 97.97483)" fill="none" stroke-linejoin="round" d="M 3065.797875 9274.766479 L 3065.797875 9431.220603 C 3065.207439 9453.458736 3080.558785 9465.463392 3103.388991 9465.463392 L 3575.147656 9465.266594 C 3605.653535 9465.266594 3604.27585 9460.937046 3619.627196 9444.79964 L 4406.08845 8449.397176 L 5091.38827 9455.229915 C 5097.686258 9466.644178 5104.377871 9465.069797 5113.431228 9465.463392 L 5570.035359 9465.463392 C 5582.237711 9466.44738 5585.780329 9461.330642 5588.142075 9453.852331 L 5668.441422 9284.212765 C 5670.409543 9278.112039 5670.212731 9271.814514 5665.882865 9265.123394 L 4742.637184 8019.984725 C 4737.520069 8011.522426 4738.110505 8003.256925 4743.818057 7995.188222 L 5663.914743 6842.741241 C 5669.031859 6834.47574 5668.638234 6826.407037 5663.521119 6818.141536 L 5546.811529 6672.117687 C 5542.28485 6665.623365 5535.199613 6664.442579 5528.901625 6664.442579 L 5089.223337 6664.442579 C 5079.382731 6664.442579 5074.65924 6664.639377 5069.738937 6672.904878 Z M 3065.797875 9274.766479 " stroke="#1c1b18" stroke-width="35.48" stroke-opacity="1" stroke-miterlimit="22.926001"/></g><path fill="#1c1b18" d="M 101.882812 282.070312 L 101.882812 285.175781 C 101.871094 285.617188 102.175781 285.855469 102.628906 285.855469 L 111.992188 285.851562 C 112.597656 285.851562 112.570312 285.765625 112.875 285.445312 L 128.484375 265.6875 L 142.085938 285.652344 C 142.210938 285.878906 142.34375 285.847656 142.523438 285.855469 L 151.585938 285.855469 C 151.828125 285.875 151.898438 285.773438 151.945312 285.625 L 153.539062 282.257812 C 153.578125 282.136719 153.574219 282.011719 153.488281 281.878906 L 135.164062 257.164062 C 135.0625 256.996094 135.074219 256.832031 135.1875 256.671875 L 153.449219 233.796875 C 153.550781 233.632812 153.542969 233.472656 153.441406 233.308594 L 151.125 230.410156 C 151.035156 230.28125 150.894531 230.257812 150.769531 230.257812 L 142.042969 230.257812 C 141.847656 230.257812 141.753906 230.261719 141.65625 230.425781 Z M 101.882812 282.070312 " fill-opacity="1" fill-rule="evenodd"/><g clip-path="url(#db80086e45)"><path stroke-linecap="butt" transform="matrix(0.0198476, 0, 0, 0.0198491, 41.034057, 97.97483)" fill="none" stroke-linejoin="miter" d="M 7406.29249 7121.800295 L 7406.29249 7121.4067 L 7403.930744 6702.818119 L 7403.930744 6702.227726 C 7403.733932 6689.042284 7398.420005 6678.415212 7374.212113 6679.3992 C 7374.015301 6679.3992 7373.818489 6679.3992 7373.621677 6679.3992 C 5764.092115 6781.537175 5790.268128 9313.535614 7376.377047 9457.591486 C 7376.377047 9457.591486 7376.573859 9457.591486 7376.573859 9457.591486 C 7401.568999 9460.740249 7404.324369 9455.033117 7404.127557 9435.746948 L 7404.127557 8966.187779 C 7404.717993 8954.970313 7403.53712 8946.508015 7387.79215 8946.11442 C 7387.595338 8946.11442 7387.595338 8946.11442 7387.595338 8946.11442 C 6387.986553 8727.275444 6567.676023 7202.093732 7387.79215 7142.857642 C 7387.79215 7142.857642 7387.988962 7142.857642 7387.988962 7142.857642 C 7405.898866 7143.251238 7408.851048 7137.740904 7406.29249 7121.800295 Z M 7406.29249 7121.800295 " stroke="#1c1b18" stroke-width="7.66" stroke-opacity="1" stroke-miterlimit="22.926001"/></g><path fill="#1c1b18" d="M 188.03125 239.335938 L 188.03125 239.328125 L 187.984375 231.019531 L 187.984375 231.007812 C 187.980469 230.746094 187.875 230.535156 187.394531 230.554688 C 187.390625 230.554688 187.386719 230.554688 187.382812 230.554688 C 155.4375 232.582031 155.957031 282.839844 187.4375 285.699219 C 187.4375 285.699219 187.441406 285.699219 187.441406 285.699219 C 187.9375 285.761719 187.992188 285.648438 187.988281 285.265625 L 187.988281 275.945312 C 188 275.722656 187.976562 275.554688 187.664062 275.546875 C 187.660156 275.546875 187.660156 275.546875 187.660156 275.546875 C 167.820312 271.203125 171.386719 240.929688 187.664062 239.753906 C 187.664062 239.753906 187.667969 239.753906 187.667969 239.753906 C 188.023438 239.761719 188.082031 239.652344 188.03125 239.335938 Z M 188.03125 239.335938 " fill-opacity="1" fill-rule="evenodd"/><path stroke-linecap="round" transform="matrix(0.0198476, 0, 0, 0.0198491, 41.034057, 97.97483)" fill="none" stroke-linejoin="round" d="M 12498.018987 6868.128137 C 12346.276839 6677.037628 12410.043967 6678.415212 12492.70506 6673.101675 L 13034.332029 6673.101675 C 13052.438745 6672.511282 13066.80603 6676.447235 13079.402006 6696.717392 L 13598.789205 7406.960076 C 13643.071933 7510.278837 13625.555654 7569.908522 13542.894562 7583.290761 L 13098.29597 7583.290761 C 13072.31677 7583.290761 13061.688915 7576.993237 13050.470624 7559.871842 Z M 12498.018987 6868.128137 " stroke="#1c1b18" stroke-width="35.509998" stroke-opacity="1" stroke-miterlimit="22.926001"/><path fill="#1c1b18" d="M 289.089844 234.300781 C 286.078125 230.507812 287.34375 230.535156 288.984375 230.429688 L 299.734375 230.429688 C 300.09375 230.417969 300.378906 230.496094 300.628906 230.898438 L 310.9375 244.996094 C 311.816406 247.046875 311.46875 248.230469 309.828125 248.496094 L 301.003906 248.496094 C 300.488281 248.496094 300.277344 248.371094 300.054688 248.03125 Z M 289.089844 234.300781 " fill-opacity="1" fill-rule="evenodd"/><g clip-path="url(#b6c68ef369)"><path stroke-linecap="round" transform="matrix(0.0198476, 0, 0, 0.0198491, 41.034057, 97.97483)" fill="none" stroke-linejoin="round" d="M 13621.619412 8140.818476 L 13616.895921 9426.300662 C 13616.895921 9452.671545 13631.263206 9466.250583 13656.65197 9466.250583 L 14092.394016 9466.250583 C 14117.192344 9464.479404 14132.346877 9449.325986 14132.346877 9425.710269 L 14132.346877 8270.704918 L 15186.669433 6821.683894 C 15245.122635 6708.722048 15187.456682 6667.788139 15093.77411 6673.101675 L 14654.686258 6673.101675 C 14636.579543 6673.101675 14635.595482 6677.824819 14630.281555 6685.893522 L 13621.619412 8140.621678 Z M 13621.619412 8140.818476 " stroke="#1c1b18" stroke-width="35.509998" stroke-opacity="1" stroke-miterlimit="22.926001"/></g><path fill="#1c1b18" d="M 311.390625 259.5625 L 311.296875 285.078125 C 311.296875 285.601562 311.582031 285.871094 312.085938 285.871094 L 320.734375 285.871094 C 321.226562 285.835938 321.527344 285.535156 321.527344 285.066406 L 321.527344 262.140625 L 342.453125 233.378906 C 343.613281 231.136719 342.46875 230.324219 340.609375 230.429688 L 331.894531 230.429688 C 331.535156 230.429688 331.515625 230.523438 331.410156 230.683594 L 311.390625 259.558594 Z M 311.390625 259.5625 " fill-opacity="1" fill-rule="evenodd"/><g clip-path="url(#099c6cccdb)"><path stroke-linecap="round" transform="matrix(0.0198476, 0, 0, 0.0198491, 41.034057, 97.97483)" fill="none" stroke-linejoin="round" d="M 11214.016681 7183.397956 L 9741.861983 7178.674813 C 9717.457279 7178.674813 9701.909121 7165.686169 9701.909121 7139.512083 L 9701.909121 6716.003561 C 9701.515497 6681.563974 9712.733788 6675.266449 9742.452419 6676.05364 L 11327.77409 6676.05364 C 12053.026772 6699.275761 12363.98993 8122.319498 11488.96322 8406.101695 L 12015.435656 9268.665752 C 12035.904117 9391.861075 11990.440516 9459.165868 11878.060792 9465.266594 L 11507.069936 9465.266594 C 11485.814226 9465.266594 11464.952141 9458.575475 11459.441401 9437.321329 L 10943.793633 8482.065584 L 10251.8022 8482.065584 L 10251.8022 9425.710269 C 10251.8022 9451.293962 10239.403036 9464.872999 10212.04615 9466.250583 L 9742.058795 9466.250583 C 9717.850903 9466.250583 9702.105933 9454.245927 9702.105933 9427.481447 L 9702.105933 7994.991424 C 9702.105933 7974.721268 9699.547376 7955.828694 9742.452419 7955.828694 L 11214.016681 7955.828694 C 11553.517597 7986.332328 11592.486398 7235.942926 11214.016681 7183.397956 Z M 11214.016681 7183.397956 " stroke="#1c1b18" stroke-width="35.48" stroke-opacity="1" stroke-miterlimit="22.926001"/></g><path fill="#1c1b18" d="M 263.605469 240.558594 L 234.386719 240.464844 C 233.902344 240.464844 233.59375 240.207031 233.59375 239.6875 L 233.59375 231.28125 C 233.585938 230.597656 233.808594 230.472656 234.398438 230.488281 L 265.863281 230.488281 C 280.257812 230.949219 286.429688 259.195312 269.0625 264.828125 L 279.511719 281.949219 C 279.917969 284.394531 279.015625 285.730469 276.785156 285.851562 L 269.421875 285.851562 C 269 285.851562 268.585938 285.71875 268.476562 285.296875 L 258.242188 266.335938 L 244.507812 266.335938 L 244.507812 285.066406 C 244.507812 285.574219 244.261719 285.84375 243.71875 285.871094 L 234.390625 285.871094 C 233.910156 285.871094 233.597656 285.632812 233.597656 285.101562 L 233.597656 256.667969 C 233.597656 256.265625 233.546875 255.890625 234.398438 255.890625 L 263.605469 255.890625 C 270.34375 256.496094 271.117188 241.601562 263.605469 240.558594 Z M 263.605469 240.558594 " fill-opacity="1" fill-rule="evenodd"/><g clip-path="url(#2ee31b5b86)"><path stroke-linecap="round" transform="matrix(0.0198476, 0, 0, 0.0198491, 41.034057, 97.97483)" fill="none" stroke-linejoin="round" d="M 2457.057971 6676.84083 L 1960.894603 6676.84083 C 1928.420602 6676.84083 1919.760869 6689.632677 1919.760869 6716.987549 C 1919.760869 6717.381144 1919.760869 6717.971537 1919.760869 6718.168335 C 1914.643753 7299.705362 2107.322824 8754.23672 1422.023003 9009.286462 C 1421.826191 9009.286462 1421.432567 9009.48326 1421.235755 9009.48326 C 1408.836591 9014.206403 1382.85739 9024.243083 1383.251015 9048.64599 L 1383.251015 9416.067184 C 1381.676518 9441.650878 1383.251015 9461.724237 1415.528203 9459.165868 C 1416.11864 9459.165868 1416.905888 9458.96907 1417.496325 9458.96907 C 1992.778167 9391.073884 2416.317861 9114.376402 2481.462675 8345.488022 L 2497.798081 6715.413168 C 2498.388518 6688.451891 2481.462675 6677.431223 2457.057971 6676.84083 Z M 2457.057971 6676.84083 " stroke="#1c1b18" stroke-width="35.470001" stroke-opacity="1" stroke-miterlimit="22.926001"/></g><path fill="#1c1b18" d="M 89.800781 230.503906 L 79.953125 230.503906 C 79.308594 230.503906 79.136719 230.757812 79.136719 231.300781 C 79.136719 231.308594 79.136719 231.320312 79.136719 231.324219 C 79.035156 242.867188 82.859375 271.738281 69.257812 276.800781 C 69.253906 276.800781 69.246094 276.804688 69.242188 276.804688 C 68.996094 276.898438 68.480469 277.097656 68.488281 277.582031 L 68.488281 284.875 C 68.457031 285.382812 68.488281 285.78125 69.128906 285.730469 C 69.140625 285.730469 69.15625 285.726562 69.167969 285.726562 C 80.585938 284.378906 88.992188 278.886719 90.285156 263.625 L 90.609375 231.269531 C 90.621094 230.734375 90.285156 230.515625 89.800781 230.503906 Z M 89.800781 230.503906 " fill-opacity="1" fill-rule="evenodd"/><g clip-path="url(#d6b8d38a96)"><path stroke-linecap="butt" transform="matrix(0.0198476, 0, 0, 0.0198491, 41.034057, 97.97483)" fill="none" stroke-linejoin="miter" d="M 7735.559176 7121.800295 L 7735.559176 7121.4067 L 7737.920921 6702.818119 L 7737.920921 6702.227726 C 7737.920921 6689.042284 7743.431661 6678.415212 7767.44274 6679.3992 C 7767.639552 6679.3992 7768.033176 6679.3992 7768.229989 6679.3992 C 9377.562738 6781.537175 9351.583538 9313.535614 7765.474619 9457.591486 C 7765.474619 9457.591486 7765.277807 9457.591486 7765.277807 9457.591486 C 7740.282667 9460.740249 7737.330485 9455.033117 7737.724109 9435.746948 L 7737.724109 8966.187779 C 7736.936861 8954.970313 7738.314546 8946.508015 7754.059516 8946.11442 C 7754.059516 8946.11442 7754.256328 8946.11442 7754.256328 8946.11442 C 8753.865113 8727.275444 8574.175642 7202.093732 7754.059516 7142.857642 C 7754.059516 7142.857642 7753.862703 7142.857642 7753.862703 7142.857642 C 7735.755988 7143.251238 7733.000618 7137.740904 7735.559176 7121.800295 Z M 7735.559176 7121.800295 " stroke="#1c1b18" stroke-width="7.66" stroke-opacity="1" stroke-miterlimit="22.926001"/></g><path fill="#1c1b18" d="M 194.566406 239.335938 L 194.566406 239.328125 L 194.613281 231.019531 L 194.613281 231.007812 C 194.613281 230.746094 194.722656 230.535156 195.199219 230.554688 C 195.203125 230.554688 195.210938 230.554688 195.214844 230.554688 C 227.15625 232.582031 226.640625 282.839844 195.160156 285.699219 C 195.160156 285.699219 195.15625 285.699219 195.15625 285.699219 C 194.660156 285.761719 194.601562 285.648438 194.609375 285.265625 L 194.609375 275.945312 C 194.59375 275.722656 194.621094 275.554688 194.933594 275.546875 C 194.933594 275.546875 194.9375 275.546875 194.9375 275.546875 C 214.777344 271.203125 211.210938 240.929688 194.933594 239.753906 C 194.933594 239.753906 194.929688 239.753906 194.929688 239.753906 C 194.570312 239.761719 194.515625 239.652344 194.566406 239.335938 Z M 194.566406 239.335938 " fill-opacity="1" fill-rule="evenodd"/></svg>