<svg xmlns="http://www.w3.org/2000/svg" xmlns:xlink="http://www.w3.org/1999/xlink" width="500" zoomAndPan="magnify" viewBox="0 0 375 374.999991" height="500" preserveAspectRatio="xMidYMid meet" version="1.2"><defs><clipPath id="93a5b3dab1"><path d="M 157 97 L 316.628906 97 L 316.628906 327.730469 L 157 327.730469 Z M 157 97 "/></clipPath><clipPath id="2f23daf471"><path d="M 58.628906 47.230469 L 219 47.230469 L 219 278 L 58.628906 278 Z M 58.628906 47.230469 "/></clipPath></defs><g id="949c5b4101"><rect x="0" width="375" y="0" height="374.999991" style="fill:#ffffff;fill-opacity:1;stroke:none;"/><rect x="0" width="375" y="0" height="374.999991" style="fill:#13d8cc;fill-opacity:1;stroke:none;"/><g clip-rule="nonzero" clip-path="url(#93a5b3dab1)"><path style=" stroke:none;fill-rule:nonzero;fill:#000000;fill-opacity:1;" d="M 316.488281 326.636719 C 309.070312 314.828125 301.644531 303.019531 294.210938 291.207031 L 283.054688 273.535156 L 271.859375 255.855469 L 249.433594 220.523438 L 228.390625 187.429688 L 255.480469 147.691406 L 262.613281 137.246094 C 265 133.769531 267.367188 130.28125 269.769531 126.816406 L 284.179688 106.019531 L 290.007812 97.613281 L 213.167969 97.097656 L 211.550781 99.988281 C 209.183594 104.222656 206.867188 108.484375 204.53125 112.734375 L 202.785156 115.925781 L 201.0625 119.136719 L 197.59375 125.53125 L 190.746094 138.375 L 187.253906 145 C 185.925781 142.980469 184.59375 140.964844 183.257812 138.953125 L 179.175781 132.847656 L 175.050781 126.765625 L 170.925781 120.695312 L 166.742188 114.652344 C 163.941406 110.625 161.097656 106.625 158.210938 102.65625 C 158.128906 102.515625 158.007812 102.421875 157.847656 102.382812 C 157.6875 102.339844 157.539062 102.359375 157.394531 102.445312 C 157.253906 102.527344 157.160156 102.648438 157.117188 102.808594 C 157.078125 102.964844 157.097656 103.117188 157.179688 103.257812 C 159.273438 107.691406 161.425781 112.09375 163.636719 116.472656 L 166.941406 123.035156 L 170.292969 129.578125 L 173.671875 136.097656 L 177.082031 142.597656 C 179.375 146.921875 181.664062 151.246094 183.992188 155.554688 L 187.347656 161.765625 L 191.34375 155.503906 C 193.953125 151.40625 196.503906 147.292969 199.082031 143.179688 L 206.742188 130.816406 L 210.542969 124.609375 L 212.441406 121.519531 L 214.324219 118.429688 C 216.226562 115.28125 218.136719 112.140625 220.023438 108.988281 C 221.527344 108.988281 267.464844 108.8125 269.292969 108.777344 L 261.398438 121.296875 C 259.152344 124.867188 256.867188 128.40625 254.605469 131.964844 L 247.789062 142.621094 L 220.488281 185.214844 L 219.0625 187.429688 L 220.488281 189.488281 L 244.15625 224 L 267.878906 258.476562 L 279.738281 275.707031 L 291.640625 292.917969 C 299.570312 304.410156 307.523438 315.871094 315.507812 327.308594 C 315.597656 327.441406 315.722656 327.523438 315.878906 327.550781 C 316.039062 327.582031 316.183594 327.554688 316.320312 327.464844 C 316.453125 327.375 316.535156 327.253906 316.570312 327.097656 C 316.601562 326.9375 316.574219 326.792969 316.488281 326.65625 Z M 316.488281 326.636719 "/></g><g clip-rule="nonzero" clip-path="url(#2f23daf471)"><path style=" stroke:none;fill-rule:nonzero;fill:#000000;fill-opacity:1;" d="M 211.667969 258.234375 L 208.363281 251.667969 L 205.015625 245.132812 L 201.632812 238.609375 L 198.222656 232.109375 C 195.929688 227.78125 193.644531 223.457031 191.3125 219.15625 L 187.957031 212.9375 L 183.960938 219.207031 C 181.351562 223.296875 178.804688 227.417969 176.226562 231.527344 L 168.558594 243.890625 L 164.761719 250.097656 L 162.859375 253.1875 L 160.980469 256.277344 C 159.082031 259.425781 157.1875 262.574219 155.308594 265.71875 C 153.804688 265.71875 107.867188 265.902344 106.035156 265.9375 L 113.910156 253.414062 C 116.15625 249.84375 118.441406 246.300781 120.707031 242.746094 L 127.523438 232.089844 L 154.824219 189.496094 L 156.242188 187.28125 L 154.824219 185.21875 L 131.152344 150.777344 L 107.433594 116.375 L 95.570312 99.179688 L 83.660156 82.007812 C 75.738281 70.550781 67.785156 59.113281 59.796875 47.699219 C 59.707031 47.570312 59.585938 47.492188 59.433594 47.457031 C 59.28125 47.425781 59.136719 47.453125 59.003906 47.535156 C 58.867188 47.621094 58.78125 47.742188 58.746094 47.902344 C 58.710938 48.058594 58.734375 48.207031 58.816406 48.34375 C 66.242188 60.136719 73.667969 71.921875 81.097656 83.699219 L 92.25 101.363281 L 103.445312 119 L 125.867188 154.265625 L 146.914062 187.285156 L 119.839844 227.019531 L 112.707031 237.464844 C 110.320312 240.9375 107.957031 244.429688 105.550781 247.898438 L 91.140625 268.691406 L 85.320312 277.097656 L 162.15625 277.613281 L 163.78125 274.699219 C 166.148438 270.464844 168.46875 266.203125 170.800781 261.953125 L 172.546875 258.761719 L 174.28125 255.5625 L 177.746094 249.164062 L 184.558594 236.339844 L 188.050781 229.71875 L 192.046875 235.757812 L 196.132812 241.859375 L 200.257812 247.949219 L 204.382812 254.015625 L 208.5625 260.058594 C 211.363281 264.085938 214.207031 268.082031 217.09375 272.050781 C 217.183594 272.171875 217.300781 272.25 217.449219 272.277344 C 217.597656 272.308594 217.738281 272.285156 217.867188 272.207031 C 217.996094 272.128906 218.085938 272.019531 218.128906 271.875 C 218.171875 271.730469 218.164062 271.589844 218.097656 271.453125 C 216.023438 267.035156 213.878906 262.628906 211.667969 258.234375 Z M 211.667969 258.234375 "/></g></g></svg>