<svg width="154" height="34" viewBox="0 0 154 34" fill="none" xmlns="http://www.w3.org/2000/svg">
<path fill-rule="evenodd" clip-rule="evenodd" d="M30.7097 10.7538V23.2462C30.7097 24.8567 29.8489 26.3448 28.4517 27.1499L17.613 33.3962C16.2158 34.2013 14.494 34.2013 13.0968 33.3962L2.25806 27.1499C0.860544 26.3448 0 24.8566 0 23.2462V10.7538C0 9.14336 0.860544 7.65518 2.25806 6.85013L13.0968 0.603818C14.494 -0.201273 16.2158 -0.201273 17.613 0.603818L28.4517 6.85013C29.8489 7.65518 30.7097 9.14336 30.7097 10.7538ZM16.5589 7.21875H15.3043C14.3985 7.21875 13.6643 7.95154 13.6643 8.85536V23.0301C13.6643 23.9527 14.4133 24.7003 15.3376 24.7003C16.2615 24.7003 17.0105 23.9527 17.0105 23.0301V7.66921C17.0105 7.42043 16.8085 7.21875 16.5589 7.21875ZM21.1318 11.9844H22.3868C22.6363 11.9844 22.8384 12.1864 22.8384 12.4352V23.0257C22.8384 23.9482 22.0894 24.6958 21.1651 24.6958C20.2412 24.6958 19.4922 23.9482 19.4922 23.0257V13.6213C19.4922 12.7172 20.2263 11.9844 21.1318 11.9844V11.9844ZM10.7579 18.0156H9.50297C8.59743 18.0156 7.86328 18.7484 7.86328 19.6525V23.0626C7.86328 23.9851 8.61233 24.7327 9.53626 24.7327C10.4605 24.7327 11.2095 23.9851 11.2095 23.0626V18.4664C11.2095 18.2173 11.0075 18.0156 10.7579 18.0156Z" fill="white"/>
<path fill-rule="evenodd" clip-rule="evenodd" d="M55.8159 21.4723C55.8159 23.7747 55.3834 24.9899 54.3159 25.9168C53.2168 26.8448 51.416 27.4199 48.8158 27.4199C46.2483 27.4199 44.7164 26.9725 43.6489 26.0773C42.2832 24.9253 41.6836 22.9758 41.6836 20.002V18.6908C41.6836 15.7487 42.2832 14.0532 43.5842 12.8075C44.7483 11.6874 46.3507 11.1754 48.6168 11.1754C49.8821 11.1754 51.0157 11.4962 51.7838 11.9757H51.8488V6.28465C51.8488 5.64378 52.0478 5.48438 52.7817 5.48438H54.8839C55.6158 5.48438 55.8159 5.64378 55.8159 6.28465V21.4723ZM51.848 17.0872C51.848 15.8088 51.5817 15.264 51.1831 14.9136C50.7155 14.4965 50.0486 14.2422 48.9492 14.2422C47.7828 14.2422 47.0486 14.5936 46.5491 15.168C45.8492 15.9683 45.7148 16.9912 45.7148 18.7826V19.7738C45.7148 21.8196 45.9153 22.8111 46.516 23.5151C47.0147 24.0906 47.6813 24.346 48.8149 24.346C50.1156 24.346 50.7486 24.1223 51.215 23.6428C51.6815 23.1625 51.848 22.3633 51.848 21.2762L51.848 17.0872Z" fill="white"/>
<path fill-rule="evenodd" clip-rule="evenodd" d="M69.3478 25.7933C68.7137 26.849 67.6805 27.4242 65.6807 27.4242H64.4472C62.7137 27.4242 61.6805 27.136 60.7804 26.4013C59.8141 25.6011 59.3477 24.3544 59.3477 22.8195V22.0846C59.3477 20.3577 59.7799 19.1425 60.7476 18.374C61.7808 17.5433 63.3478 17.1916 65.6148 17.1916H66.8154C67.4153 17.1916 68.1138 17.2234 68.6818 17.2562V16.3927C68.6818 15.5607 68.5136 15.0815 68.1138 14.7615C67.6485 14.4101 67.0144 14.3141 65.8152 14.3141C64.6132 14.3141 63.0473 14.5378 61.7159 14.9221C61.181 15.0815 60.982 14.8575 60.8816 14.4101L60.5811 12.9069C60.4494 12.3643 60.5152 12.1077 61.0809 11.9483C62.3146 11.564 64.3481 11.1797 66.1146 11.1797C68.4805 11.1797 69.7812 11.468 70.9148 12.2037C72.1143 13.0029 72.6469 14.1546 72.6469 16.4242V26.5291C72.6469 26.945 72.4133 27.1359 71.9481 27.1359H70.4153C69.9132 27.1359 69.7139 26.9768 69.6141 26.5608L69.4148 25.7933H69.3478ZM68.6816 20.2897C68.1136 20.2583 67.4151 20.2266 66.7479 20.2266H65.5819C64.8146 20.2266 64.1808 20.3226 63.8472 20.6098C63.4797 20.898 63.3477 21.4415 63.3477 22.1764V22.5606C63.3477 23.2636 63.5139 23.7124 63.8472 23.9996C64.1135 24.2233 64.5813 24.3827 65.3155 24.3827H66.5147C68.0478 24.3827 68.6816 23.7124 68.6816 22.2407L68.6816 20.2897Z" fill="white"/>
<path d="M81.7498 11.4701H85.05C85.6157 11.4701 85.7491 11.6622 85.7491 12.3008V13.8685C85.7491 14.4123 85.6157 14.6677 85.05 14.6677H81.7498V21.6382C81.7498 22.79 81.8157 23.1731 82.1504 23.5257C82.4486 23.8457 82.8164 23.9406 83.7162 23.9406H85.3482C86.0505 23.9406 86.1494 24.1329 86.1494 24.7726V26.3393C86.1494 26.9472 86.0836 27.1381 85.3482 27.1381H82.9481C81.0156 27.1381 79.8834 26.8512 79.0495 26.1152C78.1844 25.3478 77.7836 24.1012 77.7836 22.278V14.6677H75.7832C75.2834 14.6677 75.1172 14.54 75.1172 14.0597V12.6536C75.1172 12.1416 75.2495 12.0465 75.6497 11.9822L77.7836 11.6307V8.01012C77.7836 7.37148 77.9829 7.21094 78.717 7.21094H80.8166C81.5494 7.21094 81.7498 7.37148 81.7498 8.01012L81.7498 11.4701Z" fill="white"/>
<path fill-rule="evenodd" clip-rule="evenodd" d="M98.415 25.7933C97.7801 26.849 96.748 27.4242 94.747 27.4242H93.5148C91.7801 27.4242 90.748 27.136 89.8479 26.4013C88.8817 25.6011 88.4141 24.3544 88.4141 22.8195V22.0846C88.4141 20.3577 88.8474 19.1425 89.8148 18.374C90.8472 17.5433 92.4142 17.1916 94.68 17.1916H95.8818C96.4794 17.1916 97.1802 17.2234 97.747 17.2562V16.3927C97.747 15.5607 97.5811 15.0815 97.1802 14.7615C96.7138 14.4101 96.0808 14.3141 94.8805 14.3141C93.6807 14.3141 92.1126 14.5378 90.7799 14.9221C90.2474 15.0815 90.0484 14.8575 89.9468 14.4101L89.6475 12.9069C89.5135 12.3643 89.5804 12.1077 90.1482 11.9483C91.3798 11.564 93.4133 11.1797 95.181 11.1797C97.5469 11.1797 98.8476 11.468 99.9801 12.2037C101.18 13.0029 101.714 14.1546 101.714 16.4242V26.5291C101.714 26.945 101.48 27.1359 101.014 27.1359H99.4794C98.9796 27.1359 98.7803 26.9768 98.6814 26.5608L98.4801 25.7933H98.415ZM97.7468 20.2897C97.18 20.2583 96.4792 20.2266 95.8144 20.2266H94.648C93.8798 20.2266 93.2472 20.3226 92.9136 20.6098C92.5484 20.898 92.4141 21.4415 92.4141 22.1764V22.5606C92.4141 23.2636 92.58 23.7124 92.9136 23.9996C93.1799 24.2233 93.6475 24.3827 94.3797 24.3827H95.58C97.1131 24.3827 97.7469 23.7124 97.7469 22.2407L97.7468 20.2897Z" fill="white"/>
<path fill-rule="evenodd" clip-rule="evenodd" d="M109.847 12.36H109.912C110.844 11.5926 112.112 11.1754 113.911 11.1754C115.979 11.1754 117.479 11.6557 118.511 12.8075C119.612 13.9898 120.046 15.9724 120.046 18.6908V20.0334C120.046 22.8152 119.478 24.6699 118.278 25.8216C117.046 27.0039 115.345 27.42 112.779 27.42C110.645 27.42 109.145 27.228 107.945 26.492C106.646 25.6613 105.879 24.5096 105.879 21.8555V6.28465C105.879 5.64378 106.08 5.48438 106.812 5.48438H108.912C109.645 5.48438 109.847 5.64378 109.847 6.28465L109.847 12.36ZM116.012 18.8139C116.012 16.9601 115.947 15.9055 115.38 15.138C114.912 14.4972 114.079 14.2734 112.913 14.2734C111.812 14.2734 111.046 14.4665 110.58 14.8497C110.146 15.2015 109.848 15.7123 109.848 16.9918V21.3082C109.848 22.588 109.979 23.1 110.312 23.5474C110.78 24.0912 111.48 24.3466 112.812 24.3466C114.046 24.3466 114.847 24.0594 115.313 23.4832C115.812 22.876 116.012 22.0442 116.012 19.8051L116.012 18.8139Z" fill="white"/>
<path fill-rule="evenodd" clip-rule="evenodd" d="M135.351 13.066C136.585 14.4101 137.05 16.4242 137.05 18.8217V19.7823C137.05 22.2441 136.585 24.195 135.351 25.5379C134.25 26.7202 132.517 27.4242 130.05 27.4242C127.584 27.4242 125.851 26.7202 124.75 25.5379C123.516 24.195 123.051 22.2441 123.051 19.7823V18.8217C123.051 16.4242 123.516 14.4101 124.75 13.066C125.851 11.8512 127.549 11.1797 130.05 11.1797C132.55 11.1797 134.25 11.8512 135.351 13.066ZM132.282 23.5164C132.848 22.8124 133.015 21.5655 133.015 19.6149V18.9434C133.015 16.9925 132.848 15.7773 132.282 15.0744C131.814 14.4978 131.248 14.2109 130.048 14.2109C128.848 14.2109 128.282 14.4978 127.815 15.0744C127.248 15.7773 127.082 16.9925 127.082 18.9434V19.6149C127.082 21.5655 127.248 22.8124 127.815 23.5164C128.282 24.0601 128.848 24.379 130.048 24.379C131.248 24.379 131.814 24.0601 132.282 23.5164Z" fill="white"/>
<path d="M153.449 26.4339C153.648 26.7853 153.614 27.1367 152.879 27.1367H150.214C149.515 27.1367 149.413 27.0408 149.148 26.5299L146.748 21.3814C146.516 20.9022 146.414 20.71 146.247 20.71H145.848C145.68 20.71 145.548 20.9654 145.347 21.3814L142.882 26.5299C142.647 27.0407 142.515 27.1367 141.814 27.1367H139.149C138.416 27.1367 138.381 26.7853 138.582 26.4339L142.48 19.3988C142.615 19.175 142.615 19.0156 142.48 18.7918L138.814 12.1728C138.615 11.8213 138.647 11.4688 139.381 11.4688H141.981C142.681 11.4688 142.782 11.5648 143.048 12.0756L145.347 16.8398C145.548 17.2241 145.647 17.4478 145.848 17.4478H146.247C146.448 17.4478 146.58 17.2241 146.782 16.8398L149.115 12.0756C149.381 11.5648 149.481 11.4688 150.18 11.4688H152.782C153.515 11.4688 153.548 11.8213 153.347 12.1728L149.547 18.7918C149.413 19.0156 149.413 19.175 149.547 19.3988L153.449 26.4339Z" fill="white"/>
</svg>
