<svg xmlns="http://www.w3.org/2000/svg" xmlns:xlink="http://www.w3.org/1999/xlink" width="200" zoomAndPan="magnify" viewBox="0 0 150 149.999998" height="200" preserveAspectRatio="xMidYMid meet" version="1.2"><defs><clipPath id="95c442af69"><path d="M 42 35 L 108 35 L 108 115 L 42 115 Z M 42 35 "/></clipPath><clipPath id="e46181e561"><path d="M 117.65625 75 L 75.230469 117.425781 L 32.804688 75 L 75.230469 32.570312 Z M 117.65625 75 "/></clipPath><clipPath id="908703b3f5"><path d="M 117.65625 75 L 75.230469 117.425781 L 32.804688 75 L 75.230469 32.570312 Z M 117.65625 75 "/></clipPath><clipPath id="f7ee84e975"><path d="M 117.65625 75 L 75.230469 117.425781 L 32.804688 75 L 75.230469 32.570312 Z M 117.65625 75 "/></clipPath></defs><g id="472115c513"><g clip-rule="nonzero" clip-path="url(#95c442af69)"><g clip-rule="nonzero" clip-path="url(#e46181e561)"><g clip-rule="nonzero" clip-path="url(#908703b3f5)"><g clip-rule="nonzero" clip-path="url(#f7ee84e975)"><path style="fill:none;stroke-width:1;stroke-linecap:round;stroke-linejoin:round;stroke:#000000;stroke-opacity:1;stroke-miterlimit:4;" d="M 0.999802 17.00018 L 17.000027 0.999955 M 17.000027 0.999955 L 4.00031 0.999955 M 17.000027 0.999955 L 17.000027 13.999672 " transform="matrix(-2.357022,2.357022,-2.357022,-2.357022,117.656831,74.998409)"/></g></g></g></g></g></svg>