<svg xmlns="http://www.w3.org/2000/svg" xmlns:xlink="http://www.w3.org/1999/xlink" width="500" zoomAndPan="magnify" viewBox="0 0 375 374.999991" height="500" preserveAspectRatio="xMidYMid meet" version="1.2"><defs><clipPath id="79ea160647"><path d="M 89 106 L 286 106 L 286 269 L 89 269 Z M 89 106 "/></clipPath><clipPath id="106e809758"><path d="M 187.5 293.566406 L 81.433594 187.5 L 187.5 81.433594 L 293.566406 187.5 Z M 187.5 293.566406 "/></clipPath><clipPath id="10b7405bca"><path d="M 187.5 293.566406 L 81.433594 187.5 L 187.5 81.433594 L 293.566406 187.5 Z M 187.5 293.566406 "/></clipPath><clipPath id="1847f75aa0"><path d="M 187.5 293.566406 L 81.433594 187.5 L 187.5 81.433594 L 293.566406 187.5 Z M 187.5 293.566406 "/></clipPath></defs><g id="764fa48ad4"><g clip-rule="nonzero" clip-path="url(#79ea160647)"><g clip-rule="nonzero" clip-path="url(#106e809758)"><g clip-rule="nonzero" clip-path="url(#10b7405bca)"><g clip-rule="nonzero" clip-path="url(#1847f75aa0)"><path style="fill:none;stroke-width:1;stroke-linecap:round;stroke-linejoin:round;stroke:#000000;stroke-opacity:1;stroke-miterlimit:4;" d="M 0.999969 17.00003 L 17.000029 0.99997 M 17.000029 0.99997 L 3.99998 1.000302 M 17.000029 0.99997 L 16.999697 14.000019 " transform="matrix(-5.892556,-5.892556,5.892556,-5.892556,187.499992,293.566006)"/></g></g></g></g></g></svg>