<svg xmlns="http://www.w3.org/2000/svg" xmlns:xlink="http://www.w3.org/1999/xlink" width="90" zoomAndPan="magnify" viewBox="0 0 67.92 76.08" height="90" preserveAspectRatio="xMidYMid meet" version="1.2"><defs><clipPath id="67be90d4ed"><path d="M 1 1 L 67 1 L 67 66.695312 L 1 66.695312 Z M 1 1 "/></clipPath></defs><g id="756b4fbdbd"><g clip-rule="nonzero" clip-path="url(#67be90d4ed)"><path style=" stroke:none;fill-rule:nonzero;fill:#0a6936;fill-opacity:1;" d="M 18.867188 61.816406 C 18.585938 61.84375 7.691406 64.960938 7.707031 64.730469 C 6.25 64.789062 5.332031 63.601562 4.457031 62.621094 C 3.386719 61.519531 2.085938 60.246094 2.609375 58.5625 L 5.480469 47.734375 C -12.007812 13.199219 33.472656 -16.167969 58 13.882812 C 82.105469 40.460938 49.734375 80.148438 18.867188 61.816406 Z M 18.867188 61.816406 "/></g><path style=" stroke:none;fill-rule:nonzero;fill:#80c342;fill-opacity:1;" d="M 61.179688 32.375 C 61.179688 48.199219 48.359375 61.027344 32.546875 61.027344 C 26.824219 61.027344 21.492188 59.347656 17.019531 56.453125 C 16.867188 56.355469 16.683594 56.324219 16.507812 56.371094 L 5.300781 59.40625 C 5.003906 59.488281 4.730469 59.214844 4.808594 58.917969 L 7.886719 47.316406 C 7.929688 47.148438 7.902344 46.976562 7.816406 46.828125 C 5.445312 42.773438 4.042969 38.085938 3.921875 33.078125 C 3.527344 16.648438 17.125 3.179688 33.539062 3.742188 C 48.894531 4.265625 61.179688 16.882812 61.179688 32.375 Z M 61.179688 32.375 "/><path style=" stroke:none;fill-rule:nonzero;fill:#199146;fill-opacity:1;" d="M 53.648438 12.003906 C 49.082031 7.285156 43.1875 4.269531 36.785156 3.324219 C 36.257812 3.28125 35.726562 3.246094 35.195312 3.230469 C 31.058594 3.089844 27.027344 3.796875 23.210938 5.332031 C 19.539062 6.8125 16.238281 8.988281 13.40625 11.792969 C 10.574219 14.601562 8.367188 17.878906 6.851562 21.539062 C 5.28125 25.339844 4.53125 29.363281 4.632812 33.503906 C 4.75 38.410156 6.09375 43.234375 8.527344 47.476562 L 5.550781 58.707031 C 5.402344 59.269531 5.566406 59.871094 5.976562 60.28125 C 6.023438 60.328125 6.070312 60.367188 6.121094 60.40625 L 16.625 57.5625 C 16.878906 57.722656 17.136719 57.878906 17.394531 58.035156 L 18.375 57.769531 C 21.867188 59.984375 25.757812 61.425781 29.820312 62.027344 C 30.683594 62.101562 31.550781 62.140625 32.421875 62.140625 C 40.316406 62.140625 47.734375 59.066406 53.316406 53.480469 C 58.898438 47.894531 61.96875 40.472656 61.96875 32.574219 C 61.96875 24.855469 59.015625 17.550781 53.648438 12.003906 Z M 34.46875 60.667969 C 33.101562 60.667969 31.929688 60.839844 30.59375 60.636719 C 28.542969 60.328125 27.238281 61.179688 16.84375 56.523438 C 12.398438 56.226562 8.308594 57.9375 8.308594 57.9375 L 8.503906 57.207031 L 10.976562 47.867188 C 11.105469 47.382812 11.035156 46.878906 10.785156 46.445312 C 8.484375 42.511719 7.207031 38.015625 7.097656 33.445312 C 6.917969 25.929688 9.773438 18.867188 15.140625 13.546875 C 20.511719 8.230469 27.601562 5.441406 35.109375 5.695312 C 35.589844 5.714844 36.0625 5.742188 36.53125 5.78125 C 50.503906 6.972656 61.25 18.570312 61.25 32.777344 C 61.25 47.722656 49.402344 60.667969 34.46875 60.667969 Z M 34.46875 60.667969 "/><path style=" stroke:none;fill-rule:nonzero;fill:#0d7b3e;fill-opacity:1;" d="M 46.773438 48.128906 C 34.871094 52.796875 19.96875 38.316406 15.703125 27.875 C 14.703125 24.53125 15.710938 20.070312 17.996094 17.515625 C 19.84375 15.292969 23.945312 15.019531 25.664062 17.464844 C 26.296875 18.125 26.980469 18.691406 27.3125 19.609375 C 28.457031 22.597656 31.332031 26.746094 28.03125 29.59375 C 27.34375 30.269531 27.09375 30.5625 27.625 31.328125 C 29.199219 34.164062 31.921875 36.144531 34.800781 37.609375 C 37.820312 39.605469 37.328125 34.1875 40.84375 34.28125 C 43.074219 34.398438 44.164062 35.828125 46.144531 36.445312 C 48.058594 37.207031 48.578125 37.441406 49.976562 39.035156 C 52.574219 41.402344 49.785156 46.90625 46.773438 48.128906 Z M 46.773438 48.128906 "/><path style=" stroke:none;fill-rule:nonzero;fill:#ffffff;fill-opacity:1;" d="M 48.492188 41.167969 C 48.109375 43.207031 46.867188 44.886719 45.035156 45.8125 C 41.660156 47.53125 37.359375 46.359375 33.816406 44.929688 C 27.058594 42.300781 19.308594 34.140625 16.820312 27.460938 C 15.988281 24.535156 16.90625 20.515625 18.886719 18.308594 C 20.503906 16.46875 24.007812 16.25 25.011719 18.828125 C 25.546875 19.980469 26.429688 22.117188 26.949219 23.601562 C 27.414062 24.710938 27.304688 25.917969 26.535156 26.898438 L 26.523438 26.914062 C 25.367188 28.242188 24.261719 28.800781 25.390625 30.675781 C 26.375 32.363281 27.597656 33.757812 29.074219 35.117188 C 30.695312 36.597656 32.378906 37.730469 34.269531 38.675781 C 35.34375 39.234375 36.257812 39.617188 37.214844 38.902344 C 37.765625 38.511719 38.230469 37.941406 38.589844 37.378906 C 38.832031 37 39.050781 36.617188 39.300781 36.296875 C 40.355469 34.832031 42.039062 35.609375 43.265625 36.394531 C 44.53125 37.175781 46.089844 37.636719 47.390625 38.296875 C 48.625 38.878906 48.78125 39.933594 48.492188 41.167969 Z M 62.429688 32.375 C 62.429688 40.363281 59.320312 47.871094 53.675781 53.519531 C 48.03125 59.167969 40.527344 62.277344 32.546875 62.277344 C 31.664062 62.277344 30.785156 62.238281 29.914062 62.160156 C 25.472656 61.773438 21.1875 60.398438 17.347656 58.125 C 17.089844 57.96875 16.828125 57.8125 16.570312 57.648438 L 5.949219 60.527344 L 5.628906 60.613281 C 5.0625 60.765625 4.453125 60.605469 4.035156 60.1875 C 3.617188 59.773438 3.453125 59.164062 3.605469 58.597656 L 6.613281 47.238281 C 4.15625 42.949219 2.792969 38.070312 2.675781 33.109375 C 2.574219 28.921875 3.328125 24.851562 4.921875 21.007812 C 6.453125 17.308594 8.683594 13.992188 11.546875 11.152344 C 14.414062 8.316406 17.75 6.117188 21.464844 4.621094 C 25.324219 3.066406 29.398438 2.351562 33.582031 2.492188 C 34.71875 2.53125 35.847656 2.632812 36.957031 2.796875 C 43.429688 3.753906 49.394531 6.804688 54.011719 11.578125 C 59.441406 17.183594 62.429688 24.570312 62.429688 32.375 Z M 59.933594 32.375 C 59.933594 18.613281 49.960938 7.273438 36.703125 5.28125 C 35.652344 5.125 34.582031 5.027344 33.496094 4.988281 C 25.902344 4.730469 18.730469 7.550781 13.300781 12.929688 C 7.875 18.304688 4.984375 25.449219 5.167969 33.046875 C 5.277344 37.671875 6.566406 42.21875 8.894531 46.199219 C 9.152344 46.636719 9.21875 47.144531 9.089844 47.636719 L 6.394531 57.820312 L 8.355469 57.289062 L 16.179688 55.167969 C 16.339844 55.125 16.507812 55.101562 16.671875 55.101562 C 17.03125 55.101562 17.390625 55.207031 17.699219 55.40625 C 17.710938 55.414062 17.726562 55.421875 17.738281 55.429688 C 21.5 57.855469 25.765625 59.304688 30.207031 59.679688 C 30.980469 59.746094 31.761719 59.78125 32.546875 59.78125 C 47.648438 59.78125 59.933594 47.488281 59.933594 32.375 Z M 59.933594 32.375 "/></g></svg>