<svg xmlns="http://www.w3.org/2000/svg" xmlns:xlink="http://www.w3.org/1999/xlink" width="90" zoomAndPan="magnify" viewBox="0 0 67.92 76.08" height="90" preserveAspectRatio="xMidYMid meet" version="1.2"><defs><clipPath id="c32eb823bc"><path d="M 1.066406 0.699219 L 66.277344 0.699219 L 66.277344 65.910156 L 1.066406 65.910156 Z M 1.066406 0.699219 "/></clipPath><clipPath id="e8c43e5e20"><path d="M 66.277344 33.304688 C 66.277344 34.371094 66.222656 35.4375 66.121094 36.5 C 66.015625 37.5625 65.859375 38.617188 65.648438 39.664062 C 65.441406 40.710938 65.183594 41.746094 64.871094 42.769531 C 64.5625 43.792969 64.203125 44.796875 63.792969 45.78125 C 63.386719 46.769531 62.929688 47.734375 62.425781 48.675781 C 61.921875 49.617188 61.375 50.53125 60.78125 51.417969 C 60.1875 52.308594 59.550781 53.164062 58.875 53.988281 C 58.199219 54.816406 57.480469 55.605469 56.726562 56.359375 C 55.972656 57.113281 55.179688 57.832031 54.355469 58.507812 C 53.53125 59.1875 52.671875 59.820312 51.785156 60.414062 C 50.898438 61.007812 49.984375 61.558594 49.039062 62.058594 C 48.097656 62.5625 47.136719 63.019531 46.148438 63.429688 C 45.160156 63.835938 44.15625 64.195312 43.136719 64.507812 C 42.113281 64.816406 41.078125 65.074219 40.03125 65.285156 C 38.984375 65.492188 37.929688 65.648438 36.867188 65.753906 C 35.804688 65.859375 34.738281 65.910156 33.671875 65.910156 C 32.601562 65.910156 31.539062 65.859375 30.476562 65.753906 C 29.410156 65.648438 28.355469 65.492188 27.308594 65.285156 C 26.261719 65.074219 25.226562 64.816406 24.207031 64.507812 C 23.183594 64.195312 22.179688 63.835938 21.191406 63.429688 C 20.207031 63.019531 19.242188 62.5625 18.300781 62.058594 C 17.359375 61.558594 16.445312 61.007812 15.554688 60.414062 C 14.667969 59.820312 13.8125 59.1875 12.984375 58.507812 C 12.160156 57.832031 11.371094 57.113281 10.613281 56.359375 C 9.859375 55.605469 9.144531 54.816406 8.464844 53.988281 C 7.789062 53.164062 7.152344 52.308594 6.558594 51.417969 C 5.964844 50.53125 5.417969 49.617188 4.914062 48.675781 C 4.410156 47.734375 3.957031 46.769531 3.546875 45.78125 C 3.136719 44.796875 2.777344 43.792969 2.46875 42.769531 C 2.160156 41.746094 1.898438 40.710938 1.691406 39.664062 C 1.484375 38.617188 1.328125 37.5625 1.222656 36.5 C 1.117188 35.4375 1.066406 34.371094 1.066406 33.304688 C 1.066406 32.238281 1.117188 31.171875 1.222656 30.109375 C 1.328125 29.046875 1.484375 27.992188 1.691406 26.941406 C 1.898438 25.894531 2.160156 24.863281 2.46875 23.839844 C 2.777344 22.816406 3.136719 21.8125 3.546875 20.828125 C 3.957031 19.839844 4.410156 18.875 4.914062 17.933594 C 5.417969 16.992188 5.964844 16.078125 6.558594 15.191406 C 7.152344 14.300781 7.789062 13.445312 8.464844 12.621094 C 9.144531 11.792969 9.859375 11.003906 10.613281 10.25 C 11.371094 9.492188 12.160156 8.777344 12.984375 8.101562 C 13.8125 7.421875 14.667969 6.785156 15.554688 6.195312 C 16.445312 5.601562 17.359375 5.050781 18.300781 4.546875 C 19.242188 4.046875 20.207031 3.589844 21.191406 3.179688 C 22.179688 2.773438 23.183594 2.414062 24.207031 2.101562 C 25.226562 1.792969 26.261719 1.535156 27.308594 1.324219 C 28.355469 1.117188 29.410156 0.960938 30.476562 0.855469 C 31.539062 0.75 32.601562 0.699219 33.671875 0.699219 C 34.738281 0.699219 35.804688 0.75 36.867188 0.855469 C 37.929688 0.960938 38.984375 1.117188 40.03125 1.324219 C 41.078125 1.535156 42.113281 1.792969 43.136719 2.101562 C 44.15625 2.414062 45.160156 2.773438 46.148438 3.179688 C 47.136719 3.589844 48.097656 4.046875 49.039062 4.546875 C 49.984375 5.050781 50.898438 5.601562 51.785156 6.195312 C 52.671875 6.785156 53.53125 7.421875 54.355469 8.101562 C 55.179688 8.777344 55.972656 9.492188 56.726562 10.25 C 57.480469 11.003906 58.199219 11.792969 58.875 12.621094 C 59.550781 13.445312 60.1875 14.300781 60.78125 15.191406 C 61.375 16.078125 61.921875 16.992188 62.425781 17.933594 C 62.929688 18.875 63.386719 19.839844 63.792969 20.828125 C 64.203125 21.8125 64.5625 22.816406 64.871094 23.839844 C 65.183594 24.863281 65.441406 25.894531 65.648438 26.941406 C 65.859375 27.992188 66.015625 29.046875 66.121094 30.109375 C 66.222656 31.171875 66.277344 32.238281 66.277344 33.304688 Z M 66.277344 33.304688 "/></clipPath><linearGradient x1="0.0499223" gradientTransform="matrix(0.212415,0,0,0.212415,1.064928,0.698695)" y1="307.049871" x2="307.050592" gradientUnits="userSpaceOnUse" y2="0.0506136" id="7dd43be225"><stop style="stop-color:#fec053;stop-opacity:1;" offset="0"/><stop style="stop-color:#fec053;stop-opacity:1;" offset="0.125"/><stop style="stop-color:#fec053;stop-opacity:1;" offset="0.140625"/><stop style="stop-color:#fec053;stop-opacity:1;" offset="0.144531"/><stop style="stop-color:#febf53;stop-opacity:1;" offset="0.148438"/><stop style="stop-color:#febd52;stop-opacity:1;" offset="0.152344"/><stop style="stop-color:#febb52;stop-opacity:1;" offset="0.15625"/><stop style="stop-color:#fdb952;stop-opacity:1;" offset="0.160156"/><stop style="stop-color:#fdb852;stop-opacity:1;" offset="0.164063"/><stop style="stop-color:#fdb652;stop-opacity:1;" offset="0.167969"/><stop style="stop-color:#fdb451;stop-opacity:1;" offset="0.171875"/><stop style="stop-color:#fdb251;stop-opacity:1;" offset="0.175781"/><stop style="stop-color:#fdb051;stop-opacity:1;" offset="0.179688"/><stop style="stop-color:#fdae51;stop-opacity:1;" offset="0.183594"/><stop style="stop-color:#fcac50;stop-opacity:1;" offset="0.1875"/><stop style="stop-color:#fcaa50;stop-opacity:1;" offset="0.191406"/><stop style="stop-color:#fca950;stop-opacity:1;" offset="0.195313"/><stop style="stop-color:#fca750;stop-opacity:1;" offset="0.199219"/><stop style="stop-color:#fca54f;stop-opacity:1;" offset="0.203125"/><stop style="stop-color:#fca34f;stop-opacity:1;" offset="0.207031"/><stop style="stop-color:#fca14f;stop-opacity:1;" offset="0.210938"/><stop style="stop-color:#fc9f4f;stop-opacity:1;" offset="0.214844"/><stop style="stop-color:#fb9d4e;stop-opacity:1;" offset="0.21875"/><stop style="stop-color:#fb9b4e;stop-opacity:1;" offset="0.222656"/><stop style="stop-color:#fb9a4e;stop-opacity:1;" offset="0.226562"/><stop style="stop-color:#fb984e;stop-opacity:1;" offset="0.230469"/><stop style="stop-color:#fb964d;stop-opacity:1;" offset="0.234375"/><stop style="stop-color:#fb944d;stop-opacity:1;" offset="0.238281"/><stop style="stop-color:#fb924d;stop-opacity:1;" offset="0.242188"/><stop style="stop-color:#fa904d;stop-opacity:1;" offset="0.246094"/><stop style="stop-color:#fa8e4c;stop-opacity:1;" offset="0.25"/><stop style="stop-color:#fa8c4c;stop-opacity:1;" offset="0.253906"/><stop style="stop-color:#fa8b4c;stop-opacity:1;" offset="0.257812"/><stop style="stop-color:#fa894c;stop-opacity:1;" offset="0.261719"/><stop style="stop-color:#fa874b;stop-opacity:1;" offset="0.265625"/><stop style="stop-color:#fa854b;stop-opacity:1;" offset="0.269531"/><stop style="stop-color:#f9834b;stop-opacity:1;" offset="0.273438"/><stop style="stop-color:#f9814b;stop-opacity:1;" offset="0.277344"/><stop style="stop-color:#f97f4a;stop-opacity:1;" offset="0.28125"/><stop style="stop-color:#f97d4a;stop-opacity:1;" offset="0.285156"/><stop style="stop-color:#f97c4a;stop-opacity:1;" offset="0.289063"/><stop style="stop-color:#f97a4a;stop-opacity:1;" offset="0.292969"/><stop style="stop-color:#f97849;stop-opacity:1;" offset="0.296875"/><stop style="stop-color:#f87649;stop-opacity:1;" offset="0.300781"/><stop style="stop-color:#f87449;stop-opacity:1;" offset="0.304688"/><stop style="stop-color:#f87249;stop-opacity:1;" offset="0.308594"/><stop style="stop-color:#f87048;stop-opacity:1;" offset="0.3125"/><stop style="stop-color:#f86e48;stop-opacity:1;" offset="0.316406"/><stop style="stop-color:#f86d48;stop-opacity:1;" offset="0.320312"/><stop style="stop-color:#f86b48;stop-opacity:1;" offset="0.324219"/><stop style="stop-color:#f76947;stop-opacity:1;" offset="0.328125"/><stop style="stop-color:#f76747;stop-opacity:1;" offset="0.332031"/><stop style="stop-color:#f76547;stop-opacity:1;" offset="0.335938"/><stop style="stop-color:#f76347;stop-opacity:1;" offset="0.339844"/><stop style="stop-color:#f76147;stop-opacity:1;" offset="0.34375"/><stop style="stop-color:#f75f46;stop-opacity:1;" offset="0.347656"/><stop style="stop-color:#f75e46;stop-opacity:1;" offset="0.351563"/><stop style="stop-color:#f65c46;stop-opacity:1;" offset="0.355469"/><stop style="stop-color:#f65a46;stop-opacity:1;" offset="0.359375"/><stop style="stop-color:#f65845;stop-opacity:1;" offset="0.363281"/><stop style="stop-color:#f65645;stop-opacity:1;" offset="0.367188"/><stop style="stop-color:#f65445;stop-opacity:1;" offset="0.371094"/><stop style="stop-color:#f65245;stop-opacity:1;" offset="0.375"/><stop style="stop-color:#f65044;stop-opacity:1;" offset="0.378906"/><stop style="stop-color:#f54e44;stop-opacity:1;" offset="0.382813"/><stop style="stop-color:#f54d44;stop-opacity:1;" offset="0.386719"/><stop style="stop-color:#f54b44;stop-opacity:1;" offset="0.390625"/><stop style="stop-color:#f54943;stop-opacity:1;" offset="0.394531"/><stop style="stop-color:#f54743;stop-opacity:1;" offset="0.398438"/><stop style="stop-color:#f54543;stop-opacity:1;" offset="0.402344"/><stop style="stop-color:#f54343;stop-opacity:1;" offset="0.40625"/><stop style="stop-color:#f44142;stop-opacity:1;" offset="0.410156"/><stop style="stop-color:#f43f42;stop-opacity:1;" offset="0.414063"/><stop style="stop-color:#f43e42;stop-opacity:1;" offset="0.417969"/><stop style="stop-color:#f43c42;stop-opacity:1;" offset="0.421875"/><stop style="stop-color:#f43a41;stop-opacity:1;" offset="0.425781"/><stop style="stop-color:#f43841;stop-opacity:1;" offset="0.429688"/><stop style="stop-color:#f43641;stop-opacity:1;" offset="0.433594"/><stop style="stop-color:#f43441;stop-opacity:1;" offset="0.4375"/><stop style="stop-color:#f33240;stop-opacity:1;" offset="0.441406"/><stop style="stop-color:#f33040;stop-opacity:1;" offset="0.445313"/><stop style="stop-color:#f32f40;stop-opacity:1;" offset="0.449219"/><stop style="stop-color:#f32d40;stop-opacity:1;" offset="0.453125"/><stop style="stop-color:#f32b3f;stop-opacity:1;" offset="0.457031"/><stop style="stop-color:#f3293f;stop-opacity:1;" offset="0.460938"/><stop style="stop-color:#f3273f;stop-opacity:1;" offset="0.464844"/><stop style="stop-color:#f2253f;stop-opacity:1;" offset="0.46875"/><stop style="stop-color:#f2233e;stop-opacity:1;" offset="0.472656"/><stop style="stop-color:#f2213e;stop-opacity:1;" offset="0.476563"/><stop style="stop-color:#f1213f;stop-opacity:1;" offset="0.480469"/><stop style="stop-color:#f02041;stop-opacity:1;" offset="0.484375"/><stop style="stop-color:#ef2043;stop-opacity:1;" offset="0.488281"/><stop style="stop-color:#ee2046;stop-opacity:1;" offset="0.492188"/><stop style="stop-color:#ec2048;stop-opacity:1;" offset="0.496094"/><stop style="stop-color:#eb204a;stop-opacity:1;" offset="0.5"/><stop style="stop-color:#ea204d;stop-opacity:1;" offset="0.503906"/><stop style="stop-color:#e8204f;stop-opacity:1;" offset="0.507812"/><stop style="stop-color:#e72052;stop-opacity:1;" offset="0.511719"/><stop style="stop-color:#e62054;stop-opacity:1;" offset="0.515625"/><stop style="stop-color:#e42057;stop-opacity:1;" offset="0.519531"/><stop style="stop-color:#e32059;stop-opacity:1;" offset="0.523438"/><stop style="stop-color:#e2205b;stop-opacity:1;" offset="0.527344"/><stop style="stop-color:#e0205e;stop-opacity:1;" offset="0.53125"/><stop style="stop-color:#df2060;stop-opacity:1;" offset="0.535156"/><stop style="stop-color:#de2063;stop-opacity:1;" offset="0.539063"/><stop style="stop-color:#dc2065;stop-opacity:1;" offset="0.542969"/><stop style="stop-color:#db2068;stop-opacity:1;" offset="0.546875"/><stop style="stop-color:#d9206a;stop-opacity:1;" offset="0.550781"/><stop style="stop-color:#d8206d;stop-opacity:1;" offset="0.554688"/><stop style="stop-color:#d7206f;stop-opacity:1;" offset="0.558594"/><stop style="stop-color:#d52071;stop-opacity:1;" offset="0.5625"/><stop style="stop-color:#d41f74;stop-opacity:1;" offset="0.566406"/><stop style="stop-color:#d31f76;stop-opacity:1;" offset="0.570312"/><stop style="stop-color:#d11f79;stop-opacity:1;" offset="0.574219"/><stop style="stop-color:#d01f7b;stop-opacity:1;" offset="0.578125"/><stop style="stop-color:#cf1f7e;stop-opacity:1;" offset="0.582031"/><stop style="stop-color:#cd1f80;stop-opacity:1;" offset="0.585938"/><stop style="stop-color:#cc1f82;stop-opacity:1;" offset="0.589844"/><stop style="stop-color:#cb1f85;stop-opacity:1;" offset="0.59375"/><stop style="stop-color:#c91f87;stop-opacity:1;" offset="0.597656"/><stop style="stop-color:#c81f8a;stop-opacity:1;" offset="0.601562"/><stop style="stop-color:#c71f8c;stop-opacity:1;" offset="0.605469"/><stop style="stop-color:#c51f8f;stop-opacity:1;" offset="0.609375"/><stop style="stop-color:#c41f91;stop-opacity:1;" offset="0.613281"/><stop style="stop-color:#c31f93;stop-opacity:1;" offset="0.617188"/><stop style="stop-color:#c11f96;stop-opacity:1;" offset="0.621094"/><stop style="stop-color:#c01f98;stop-opacity:1;" offset="0.625"/><stop style="stop-color:#be1f9b;stop-opacity:1;" offset="0.628906"/><stop style="stop-color:#bd1f9d;stop-opacity:1;" offset="0.632813"/><stop style="stop-color:#bc1fa0;stop-opacity:1;" offset="0.636719"/><stop style="stop-color:#ba1fa2;stop-opacity:1;" offset="0.640625"/><stop style="stop-color:#b91fa4;stop-opacity:1;" offset="0.644531"/><stop style="stop-color:#b81fa7;stop-opacity:1;" offset="0.648438"/><stop style="stop-color:#b620a8;stop-opacity:1;" offset="0.652344"/><stop style="stop-color:#b421a9;stop-opacity:1;" offset="0.65625"/><stop style="stop-color:#b222aa;stop-opacity:1;" offset="0.660156"/><stop style="stop-color:#b023ab;stop-opacity:1;" offset="0.664062"/><stop style="stop-color:#ae23ac;stop-opacity:1;" offset="0.667969"/><stop style="stop-color:#ac24ad;stop-opacity:1;" offset="0.671875"/><stop style="stop-color:#aa25ae;stop-opacity:1;" offset="0.675781"/><stop style="stop-color:#a926af;stop-opacity:1;" offset="0.679688"/><stop style="stop-color:#a727b0;stop-opacity:1;" offset="0.683594"/><stop style="stop-color:#a528b0;stop-opacity:1;" offset="0.6875"/><stop style="stop-color:#a329b1;stop-opacity:1;" offset="0.691406"/><stop style="stop-color:#a12ab2;stop-opacity:1;" offset="0.695313"/><stop style="stop-color:#9f2bb3;stop-opacity:1;" offset="0.699219"/><stop style="stop-color:#9d2cb4;stop-opacity:1;" offset="0.703125"/><stop style="stop-color:#9b2db5;stop-opacity:1;" offset="0.707031"/><stop style="stop-color:#992eb6;stop-opacity:1;" offset="0.710938"/><stop style="stop-color:#972fb7;stop-opacity:1;" offset="0.714844"/><stop style="stop-color:#9530b8;stop-opacity:1;" offset="0.71875"/><stop style="stop-color:#9331b8;stop-opacity:1;" offset="0.722656"/><stop style="stop-color:#9132b9;stop-opacity:1;" offset="0.726562"/><stop style="stop-color:#8f33ba;stop-opacity:1;" offset="0.730469"/><stop style="stop-color:#8e34bb;stop-opacity:1;" offset="0.734375"/><stop style="stop-color:#8c35bc;stop-opacity:1;" offset="0.738281"/><stop style="stop-color:#8a36bd;stop-opacity:1;" offset="0.742188"/><stop style="stop-color:#8837be;stop-opacity:1;" offset="0.746094"/><stop style="stop-color:#8638bf;stop-opacity:1;" offset="0.75"/><stop style="stop-color:#8439bf;stop-opacity:1;" offset="0.753906"/><stop style="stop-color:#823ac0;stop-opacity:1;" offset="0.757813"/><stop style="stop-color:#803bc1;stop-opacity:1;" offset="0.761719"/><stop style="stop-color:#7e3cc2;stop-opacity:1;" offset="0.765625"/><stop style="stop-color:#7c3cc3;stop-opacity:1;" offset="0.769531"/><stop style="stop-color:#7a3dc4;stop-opacity:1;" offset="0.773438"/><stop style="stop-color:#783ec5;stop-opacity:1;" offset="0.777344"/><stop style="stop-color:#763fc6;stop-opacity:1;" offset="0.78125"/><stop style="stop-color:#7440c7;stop-opacity:1;" offset="0.785156"/><stop style="stop-color:#7341c7;stop-opacity:1;" offset="0.789062"/><stop style="stop-color:#7142c8;stop-opacity:1;" offset="0.792969"/><stop style="stop-color:#6f43c9;stop-opacity:1;" offset="0.796875"/><stop style="stop-color:#6d44ca;stop-opacity:1;" offset="0.800781"/><stop style="stop-color:#6b45cb;stop-opacity:1;" offset="0.804688"/><stop style="stop-color:#6946cc;stop-opacity:1;" offset="0.808594"/><stop style="stop-color:#6747cd;stop-opacity:1;" offset="0.8125"/><stop style="stop-color:#6548ce;stop-opacity:1;" offset="0.816406"/><stop style="stop-color:#6349cf;stop-opacity:1;" offset="0.820312"/><stop style="stop-color:#614acf;stop-opacity:1;" offset="0.824219"/><stop style="stop-color:#5f4bd0;stop-opacity:1;" offset="0.828125"/><stop style="stop-color:#5d4cd1;stop-opacity:1;" offset="0.832031"/><stop style="stop-color:#5b4dd2;stop-opacity:1;" offset="0.835938"/><stop style="stop-color:#594ed3;stop-opacity:1;" offset="0.839844"/><stop style="stop-color:#574fd4;stop-opacity:1;" offset="0.84375"/><stop style="stop-color:#5650d5;stop-opacity:1;" offset="0.847656"/><stop style="stop-color:#5451d6;stop-opacity:1;" offset="0.851562"/><stop style="stop-color:#5351d6;stop-opacity:1;" offset="0.859375"/><stop style="stop-color:#5351d6;stop-opacity:1;" offset="0.875"/><stop style="stop-color:#5351d6;stop-opacity:1;" offset="1"/></linearGradient></defs><g id="984612dd55"><g clip-rule="nonzero" clip-path="url(#c32eb823bc)"><g clip-rule="nonzero" clip-path="url(#e8c43e5e20)"><path style=" stroke:none;fill-rule:nonzero;fill:url(#7dd43be225);" d="M 1.066406 0.699219 L 1.066406 65.910156 L 66.277344 65.910156 L 66.277344 0.699219 Z M 1.066406 0.699219 "/></g></g><path style=" stroke:none;fill-rule:nonzero;fill:#ffffff;fill-opacity:1;" d="M 42.417969 52.980469 L 25.035156 52.980469 C 19.007812 52.980469 14.105469 48.078125 14.105469 42.050781 L 14.105469 24.671875 C 14.105469 18.644531 19.007812 13.742188 25.035156 13.742188 L 42.417969 13.742188 C 48.445312 13.742188 53.347656 18.644531 53.347656 24.671875 L 53.347656 42.050781 C 53.347656 48.078125 48.445312 52.980469 42.417969 52.980469 Z M 25.035156 16.398438 C 20.476562 16.398438 16.761719 20.109375 16.761719 24.671875 L 16.761719 42.050781 C 16.761719 46.613281 20.476562 50.324219 25.035156 50.324219 L 42.417969 50.324219 C 46.980469 50.324219 50.691406 46.613281 50.691406 42.050781 L 50.691406 24.671875 C 50.691406 20.109375 46.980469 16.398438 42.417969 16.398438 Z M 25.035156 16.398438 "/><path style=" stroke:none;fill-rule:nonzero;fill:#ffffff;fill-opacity:1;" d="M 33.726562 43.082031 C 28.371094 43.082031 24.007812 38.722656 24.007812 33.363281 C 24.007812 28.003906 28.371094 23.644531 33.726562 23.644531 C 39.085938 23.644531 43.449219 28.003906 43.449219 33.363281 C 43.449219 38.722656 39.085938 43.082031 33.726562 43.082031 Z M 33.726562 26.296875 C 29.832031 26.296875 26.664062 29.464844 26.664062 33.363281 C 26.664062 37.257812 29.835938 40.425781 33.726562 40.425781 C 37.621094 40.425781 40.789062 37.257812 40.789062 33.363281 C 40.789062 29.464844 37.621094 26.296875 33.726562 26.296875 Z M 33.726562 26.296875 "/></g></svg>