<svg xmlns="http://www.w3.org/2000/svg" xmlns:xlink="http://www.w3.org/1999/xlink" width="90" zoomAndPan="magnify" viewBox="0 0 67.92 76.08" height="90" preserveAspectRatio="xMidYMid meet" version="1.2"><defs><clipPath id="c19ca47dda"><path d="M 1.023438 0.574219 L 66.234375 0.574219 L 66.234375 65.785156 L 1.023438 65.785156 Z M 1.023438 0.574219 "/></clipPath></defs><g id="03ba34797a"><g clip-rule="nonzero" clip-path="url(#c19ca47dda)"><path style=" stroke:none;fill-rule:nonzero;fill:#000000;fill-opacity:1;" d="M 66.234375 33.167969 C 66.234375 34.234375 66.179688 35.296875 66.074219 36.359375 C 65.972656 37.421875 65.816406 38.472656 65.605469 39.519531 C 65.398438 40.5625 65.140625 41.597656 64.828125 42.617188 C 64.519531 43.636719 64.160156 44.636719 63.75 45.621094 C 63.34375 46.605469 62.886719 47.570312 62.382812 48.507812 C 61.878906 49.449219 61.332031 50.363281 60.738281 51.25 C 60.144531 52.132812 59.507812 52.988281 58.832031 53.8125 C 58.15625 54.636719 57.4375 55.425781 56.683594 56.179688 C 55.929688 56.933594 55.136719 57.648438 54.3125 58.324219 C 53.488281 59 52.628906 59.632812 51.742188 60.226562 C 50.855469 60.816406 49.941406 61.367188 48.996094 61.867188 C 48.054688 62.371094 47.089844 62.824219 46.105469 63.234375 C 45.117188 63.640625 44.113281 64 43.09375 64.308594 C 42.070312 64.617188 41.035156 64.878906 39.988281 65.085938 C 38.941406 65.292969 37.886719 65.449219 36.824219 65.554688 C 35.761719 65.660156 34.695312 65.710938 33.628906 65.710938 C 32.558594 65.710938 31.496094 65.660156 30.433594 65.554688 C 29.371094 65.449219 28.3125 65.292969 27.265625 65.085938 C 26.21875 64.878906 25.183594 64.617188 24.164062 64.308594 C 23.140625 64 22.136719 63.640625 21.148438 63.234375 C 20.164062 62.824219 19.199219 62.371094 18.257812 61.867188 C 17.316406 61.367188 16.402344 60.816406 15.511719 60.226562 C 14.625 59.632812 13.769531 59 12.941406 58.324219 C 12.117188 57.648438 11.328125 56.933594 10.574219 56.179688 C 9.816406 55.425781 9.101562 54.636719 8.421875 53.8125 C 7.746094 52.988281 7.109375 52.132812 6.515625 51.25 C 5.925781 50.363281 5.375 49.449219 4.871094 48.507812 C 4.371094 47.570312 3.914062 46.605469 3.503906 45.621094 C 3.097656 44.636719 2.738281 43.636719 2.425781 42.617188 C 2.117188 41.597656 1.859375 40.5625 1.648438 39.519531 C 1.441406 38.472656 1.285156 37.421875 1.179688 36.359375 C 1.074219 35.296875 1.023438 34.234375 1.023438 33.167969 C 1.023438 32.105469 1.074219 31.039062 1.179688 29.980469 C 1.285156 28.917969 1.441406 27.867188 1.648438 26.820312 C 1.859375 25.777344 2.117188 24.742188 2.425781 23.722656 C 2.738281 22.703125 3.097656 21.703125 3.503906 20.714844 C 3.914062 19.730469 4.371094 18.769531 4.871094 17.832031 C 5.375 16.890625 5.925781 15.976562 6.515625 15.089844 C 7.109375 14.203125 7.746094 13.351562 8.421875 12.527344 C 9.101562 11.703125 9.816406 10.914062 10.574219 10.160156 C 11.328125 9.40625 12.117188 8.691406 12.941406 8.015625 C 13.769531 7.339844 14.625 6.707031 15.511719 6.113281 C 16.402344 5.519531 17.316406 4.972656 18.257812 4.472656 C 19.199219 3.96875 20.164062 3.515625 21.148438 3.105469 C 22.136719 2.699219 23.140625 2.339844 24.164062 2.03125 C 25.183594 1.722656 26.21875 1.460938 27.265625 1.253906 C 28.3125 1.046875 29.371094 0.890625 30.433594 0.785156 C 31.496094 0.679688 32.558594 0.628906 33.628906 0.628906 C 34.695312 0.628906 35.761719 0.679688 36.824219 0.785156 C 37.886719 0.890625 38.941406 1.046875 39.988281 1.253906 C 41.035156 1.460938 42.070312 1.722656 43.09375 2.03125 C 44.113281 2.339844 45.117188 2.699219 46.105469 3.105469 C 47.089844 3.515625 48.054688 3.96875 48.996094 4.472656 C 49.9375 4.972656 50.855469 5.519531 51.742188 6.113281 C 52.628906 6.707031 53.488281 7.339844 54.3125 8.015625 C 55.136719 8.691406 55.929688 9.40625 56.683594 10.160156 C 57.4375 10.914062 58.15625 11.703125 58.832031 12.527344 C 59.507812 13.351562 60.144531 14.203125 60.738281 15.089844 C 61.332031 15.976562 61.878906 16.890625 62.382812 17.828125 C 62.886719 18.769531 63.34375 19.730469 63.75 20.714844 C 64.160156 21.703125 64.519531 22.703125 64.828125 23.722656 C 65.140625 24.742188 65.398438 25.777344 65.605469 26.820312 C 65.816406 27.867188 65.972656 28.917969 66.074219 29.980469 C 66.179688 31.039062 66.234375 32.105469 66.234375 33.167969 Z M 66.234375 33.167969 "/></g><path style="fill-rule:evenodd;fill:#ffffff;fill-opacity:1;stroke-width:2.14;stroke-linecap:round;stroke-linejoin:round;stroke:#ffffff;stroke-opacity:1;stroke-miterlimit:1.5;" d="M 30640.393107 9422.339857 L 30685.698085 9422.037746 L 30795.695759 9582.116178 L 30750.009054 9581.713363 Z M 30640.393107 9422.339857 " transform="matrix(0.194429,0,0,0.193948,-5938.856146,-1810.118771)"/><path style="fill-rule:evenodd;fill:#ffffff;fill-opacity:1;stroke-width:2.14;stroke-linecap:round;stroke-linejoin:round;stroke:#ffffff;stroke-opacity:1;stroke-miterlimit:1.5;" d="M 30776.810314 9422.037746 L 30790.894034 9422.037746 L 30653.994646 9582.116178 L 30640.393107 9582.116178 Z M 30776.810314 9422.037746 " transform="matrix(0.194429,0,0,0.193948,-5938.856146,-1810.118771)"/><path style=" stroke:none;fill-rule:evenodd;fill:#000000;fill-opacity:1;" d="M 22.15625 19.675781 L 26.238281 19.699219 L 45.117188 46.664062 L 41.035156 46.660156 Z M 22.15625 19.675781 "/><path style=" stroke:none;fill-rule:evenodd;fill:#000000;fill-opacity:1;" d="M 22.15625 19.675781 L 26.238281 19.699219 L 45.117188 46.664062 L 41.035156 46.660156 Z M 22.46875 19.839844 C 22.46875 19.839844 41.113281 46.496094 41.113281 46.496094 C 41.113281 46.496094 44.808594 46.5 44.808594 46.5 L 26.144531 19.859375 Z M 22.46875 19.839844 "/></g></svg>