<svg xmlns="http://www.w3.org/2000/svg" xmlns:xlink="http://www.w3.org/1999/xlink" width="90" zoomAndPan="magnify" viewBox="0 0 67.92 76.08" height="90" preserveAspectRatio="xMidYMid meet" version="1.2"><defs><clipPath id="91dca5c381"><path d="M 0.8125 0.445312 L 66.761719 0.445312 L 66.761719 66.398438 L 0.8125 66.398438 Z M 0.8125 0.445312 "/></clipPath></defs><g id="87a4d6165f"><g clip-rule="nonzero" clip-path="url(#91dca5c381)"><path style=" stroke:none;fill-rule:nonzero;fill:#2196f3;fill-opacity:1;" d="M 66.761719 33.421875 C 66.761719 34.5 66.710938 35.578125 66.605469 36.652344 C 66.5 37.726562 66.339844 38.796875 66.128906 39.855469 C 65.917969 40.914062 65.65625 41.960938 65.34375 42.992188 C 65.03125 44.027344 64.667969 45.042969 64.253906 46.039062 C 63.839844 47.039062 63.378906 48.011719 62.871094 48.964844 C 62.359375 49.917969 61.804688 50.84375 61.207031 51.742188 C 60.605469 52.640625 59.964844 53.507812 59.277344 54.339844 C 58.59375 55.175781 57.867188 55.976562 57.105469 56.738281 C 56.339844 57.503906 55.542969 58.226562 54.707031 58.910156 C 53.871094 59.597656 53.003906 60.238281 52.109375 60.839844 C 51.210938 61.441406 50.285156 61.996094 49.332031 62.503906 C 48.378906 63.011719 47.40625 63.472656 46.40625 63.886719 C 45.410156 64.300781 44.394531 64.664062 43.359375 64.976562 C 42.324219 65.289062 41.28125 65.554688 40.21875 65.761719 C 39.160156 65.972656 38.09375 66.132812 37.019531 66.238281 C 35.945312 66.34375 34.867188 66.398438 33.785156 66.398438 C 32.707031 66.398438 31.628906 66.34375 30.554688 66.238281 C 29.480469 66.132812 28.414062 65.972656 27.355469 65.761719 C 26.292969 65.554688 25.25 65.289062 24.214844 64.976562 C 23.179688 64.664062 22.164062 64.300781 21.167969 63.886719 C 20.167969 63.472656 19.195312 63.011719 18.242188 62.503906 C 17.289062 61.996094 16.363281 61.441406 15.464844 60.839844 C 14.570312 60.238281 13.703125 59.597656 12.867188 58.910156 C 12.03125 58.226562 11.234375 57.503906 10.46875 56.738281 C 9.707031 55.976562 8.980469 55.175781 8.296875 54.339844 C 7.609375 53.507812 6.96875 52.640625 6.367188 51.742188 C 5.769531 50.84375 5.214844 49.917969 4.703125 48.964844 C 4.195312 48.011719 3.734375 47.039062 3.320312 46.039062 C 2.90625 45.042969 2.542969 44.027344 2.230469 42.992188 C 1.917969 41.960938 1.65625 40.914062 1.445312 39.855469 C 1.234375 38.796875 1.074219 37.726562 0.96875 36.652344 C 0.863281 35.578125 0.8125 34.5 0.8125 33.421875 C 0.8125 32.339844 0.863281 31.261719 0.96875 30.1875 C 1.074219 29.113281 1.234375 28.046875 1.445312 26.988281 C 1.65625 25.929688 1.917969 24.882812 2.230469 23.847656 C 2.542969 22.816406 2.90625 21.800781 3.320312 20.800781 C 3.734375 19.804688 4.195312 18.828125 4.703125 17.875 C 5.214844 16.921875 5.769531 16 6.367188 15.101562 C 6.96875 14.203125 7.609375 13.335938 8.296875 12.5 C 8.980469 11.667969 9.707031 10.867188 10.46875 10.101562 C 11.234375 9.339844 12.03125 8.613281 12.867188 7.929688 C 13.703125 7.246094 14.570312 6.601562 15.464844 6.003906 C 16.363281 5.402344 17.289062 4.847656 18.242188 4.339844 C 19.195312 3.828125 20.167969 3.367188 21.167969 2.953125 C 22.164062 2.542969 23.179688 2.179688 24.214844 1.863281 C 25.25 1.550781 26.292969 1.289062 27.355469 1.078125 C 28.414062 0.867188 29.480469 0.710938 30.554688 0.601562 C 31.628906 0.496094 32.707031 0.445312 33.785156 0.445312 C 34.867188 0.445312 35.945312 0.496094 37.019531 0.601562 C 38.09375 0.710938 39.160156 0.867188 40.21875 1.078125 C 41.28125 1.289062 42.324219 1.550781 43.359375 1.863281 C 44.394531 2.179688 45.410156 2.542969 46.40625 2.953125 C 47.40625 3.367188 48.378906 3.828125 49.332031 4.339844 C 50.285156 4.847656 51.210938 5.402344 52.109375 6.003906 C 53.003906 6.601562 53.871094 7.246094 54.707031 7.929688 C 55.542969 8.613281 56.339844 9.339844 57.105469 10.101562 C 57.867188 10.867188 58.59375 11.667969 59.277344 12.5 C 59.964844 13.335938 60.605469 14.203125 61.207031 15.101562 C 61.804688 16 62.359375 16.921875 62.871094 17.875 C 63.378906 18.828125 63.839844 19.804688 64.253906 20.800781 C 64.667969 21.800781 65.03125 22.816406 65.34375 23.847656 C 65.65625 24.882812 65.917969 25.929688 66.128906 26.988281 C 66.339844 28.046875 66.5 29.113281 66.605469 30.1875 C 66.710938 31.261719 66.761719 32.339844 66.761719 33.421875 Z M 66.761719 33.421875 "/></g><path style=" stroke:none;fill-rule:nonzero;fill:#ffffff;fill-opacity:1;" d="M 33.78125 35.050781 L 16.398438 26.378906 L 16.398438 43.605469 C 16.398438 44.042969 16.484375 44.464844 16.652344 44.867188 C 16.816406 45.269531 17.054688 45.625 17.367188 45.9375 C 17.675781 46.246094 18.03125 46.484375 18.433594 46.652344 C 18.835938 46.816406 19.257812 46.902344 19.695312 46.902344 L 47.878906 46.902344 C 48.316406 46.902344 48.738281 46.816406 49.140625 46.652344 C 49.542969 46.484375 49.898438 46.246094 50.207031 45.9375 C 50.519531 45.625 50.757812 45.269531 50.921875 44.867188 C 51.089844 44.464844 51.175781 44.042969 51.175781 43.605469 L 51.175781 26.558594 Z M 33.78125 35.050781 "/><path style=" stroke:none;fill-rule:nonzero;fill:#ffffff;fill-opacity:1;" d="M 33.792969 31.792969 L 51.175781 23.308594 L 51.175781 23.234375 C 51.175781 22.796875 51.089844 22.378906 50.921875 21.972656 C 50.757812 21.570312 50.519531 21.214844 50.207031 20.90625 C 49.898438 20.597656 49.542969 20.359375 49.140625 20.191406 C 48.738281 20.023438 48.316406 19.9375 47.878906 19.9375 L 19.695312 19.9375 C 19.265625 19.9375 18.855469 20.019531 18.460938 20.179688 C 18.066406 20.339844 17.714844 20.566406 17.40625 20.863281 C 17.097656 21.160156 16.859375 21.503906 16.683594 21.890625 C 16.507812 22.28125 16.414062 22.6875 16.398438 23.117188 Z M 33.792969 31.792969 "/></g></svg>